<svg width="50" height="49" viewBox="0 0 50 49" fill="none" xmlns="http://www.w3.org/2000/svg">
<path d="M43.2976 5.61025L42.3832 4.69586C40.402 2.71466 37.0492 2.71466 35.068 4.69586L33.2392 6.52465C30.0388 5.00065 26.3812 4.39106 22.5712 4.84825C13.5797 5.91505 6.4169 13.0778 5.35011 22.0694C3.97851 34.1089 13.2749 44.3197 25.0096 44.3197C28.3624 44.3197 31.5628 43.5577 34.306 42.0337L37.6588 45.3865C37.8112 45.5389 37.9636 45.6913 38.116 45.6913H38.2684H38.4208C38.5732 45.6913 38.5732 45.6913 38.7256 45.6913C38.878 45.6913 38.878 45.6913 39.0304 45.6913H39.1828H39.3352C39.4876 45.6913 39.64 45.5389 39.7924 45.3865C39.9448 45.2341 40.0972 45.0817 40.0972 44.9293V44.7769V44.6245V44.4721V37.3093C42.9928 33.8041 44.6692 29.3846 44.6692 24.6602C44.6692 20.8502 43.6024 17.4974 41.7736 14.4494L43.2976 12.9254C45.2788 10.9442 45.2788 7.59144 43.2976 5.61025ZM40.2496 26.0318H41.7736C41.3164 31.061 38.5732 35.4805 34.6108 38.2237C34.0012 38.6809 33.3916 38.9857 32.782 39.2905C30.9532 40.2049 28.8196 40.9669 26.686 41.1193V39.5953C26.686 38.8333 25.924 38.0713 25.162 38.0713C24.4 38.0713 23.638 38.8333 23.638 39.5953V41.1193C15.5609 40.3573 9.16009 33.9565 8.3981 25.8794H9.92209C10.6841 25.8794 11.4461 25.1174 11.4461 24.3554C11.4461 23.5934 10.6841 22.8314 9.92209 22.8314H8.2457C9.00769 14.9066 15.4085 8.50584 23.4856 7.74384V9.26784C23.4856 10.0298 24.2476 10.7918 25.0096 10.7918C25.7716 10.7918 26.5336 10.0298 26.5336 9.26784V7.74384C34.6108 8.50584 41.0116 14.9066 41.7736 22.9838H40.2496C39.4876 22.9838 38.7256 23.7458 38.7256 24.5078C38.7256 25.2698 39.4876 26.0318 40.2496 26.0318Z" fill="#FF6631"/>
<path d="M25.0099 10.7918V4.69586C22.1143 4.69586 19.2187 5.30545 16.7804 6.52465L14.9516 4.69586C12.9704 2.71466 9.61758 2.71466 7.63639 4.69586L6.72199 5.61025C4.7408 7.59144 4.7408 10.9442 6.72199 12.9254L8.09359 14.297C6.26479 17.345 5.198 20.6978 5.198 24.5078C5.198 29.2322 6.87439 33.6517 9.76998 37.1569V44.3197C9.76998 44.4721 9.76998 44.6245 9.76998 44.7769V44.9293C9.76998 44.9293 9.76998 44.9293 9.76998 45.0817C9.76998 45.2341 9.92238 45.3865 10.0748 45.5389C10.2272 45.6913 10.3796 45.6913 10.532 45.8437C10.532 45.8437 10.532 45.8437 10.6844 45.8437H10.8368C10.9892 45.8437 11.1416 45.8437 11.294 45.8437C11.4464 45.8437 11.5988 45.8437 11.7512 45.8437H11.9036C11.9036 45.8437 11.9036 45.8437 12.056 45.8437C12.2084 45.8437 12.3608 45.6913 12.5132 45.5389L15.866 42.1861C18.6091 43.7101 21.8095 44.4721 25.1623 44.4721V38.3761C24.4003 38.3761 23.6383 39.1381 23.6383 39.9001V41.4241C21.3523 41.2717 19.3711 40.6621 17.5423 39.5953C16.9328 39.2905 16.3232 38.8333 15.7136 38.5285C11.7512 35.7853 9.00798 31.3658 8.55078 26.3366H10.0748C10.8368 26.3366 11.5988 25.5746 11.5988 24.8126C11.5988 24.0506 10.8368 23.2886 10.0748 23.2886H8.24599C9.00798 14.9066 15.4088 8.50584 23.4859 7.74384V9.26784C23.4859 10.0298 24.2479 10.7918 25.0099 10.7918Z" fill="#FF6631"/>
<text fill="#122738" xml:space="preserve" style="white-space: pre" font-family="Poppins" font-size="14.567" letter-spacing="0em"><tspan x="15.8233" y="29.2205">60</tspan></text>
</svg>
