<?xml version="1.0" encoding="UTF-8"?>
<svg xmlns="http://www.w3.org/2000/svg" xmlns:xlink="http://www.w3.org/1999/xlink" width="52pt" height="52pt" viewBox="0 0 52 52" version="1.1">
<g id="surface1">
<path style=" stroke:none;fill-rule:nonzero;fill:rgb(100%,100%,100%);fill-opacity:1;" d="M 42.25 0 L 9.75 0 C 4.367188 0 0 4.367188 0 9.75 L 0 42.25 C 0 47.632813 4.367188 52 9.75 52 L 42.25 52 C 47.632813 52 52 47.632813 52 42.25 L 52 9.75 C 52 4.367188 47.632813 0 42.25 0 Z M 40.929688 28.007813 L 36.0625 28.007813 L 36.0625 46.015625 L 27.9375 46.015625 L 27.9375 28.007813 L 24.78125 28.007813 L 24.78125 21.9375 L 27.9375 21.9375 L 27.9375 18.070313 C 27.9375 13.007813 30.039063 10 36.015625 10 L 42.0625 10 L 42.0625 16.046875 L 38.546875 16.046875 C 36.226563 16.046875 36.070313 16.90625 36.070313 18.53125 L 36.0625 21.9375 L 41.59375 21.9375 Z "/>
</g>
</svg>
