<svg xmlns="http://www.w3.org/2000/svg" viewBox="0 0 1860.79 552.71"><defs><style>.cls-1{font-size:400px;font-family:Saira-Bold, Saira;font-weight:700;letter-spacing:0.15em;}.cls-2{font-size:96px;fill:#444;font-family:Saira-Regular, Saira;}.cls-3{letter-spacing:-0.01em;}.cls-4{letter-spacing:0em;}</style></defs><title>jsqg-logo</title><g id="Layer_2" data-name="Layer 2"><g id="Layer_1-2" data-name="Layer 1"><text class="cls-1" transform="translate(664 337.6)">JSQG</text><text class="cls-2" transform="translate(657 479.73)">A simple J<tspan class="cls-3" x="436.5" y="0">av</tspan><tspan x="540.09" y="0">aScri</tspan><tspan class="cls-4" x="758.77" y="0">p</tspan><tspan x="814.93" y="0">t Game</tspan></text><path d="M422.81,18.71H111.19C50,18.71,0,68.75,0,129.9V441.52c0,61.15,50,111.19,111.19,111.19H422.81c61.15,0,111.19-50,111.19-111.19V129.9C534,68.75,484,18.71,422.81,18.71ZM105.06,374.49V159.8a33.09,33.09,0,0,1,33-33H319.75a33.09,33.09,0,0,1,33,33V291.92a33.09,33.09,0,0,1-33,33H154.6Zm330.3,82.58-49.54-49.55H220.66a33.09,33.09,0,0,1-33-33v-33H319.75c28.06,0,49.54-21.48,49.54-49.55V209.34h33a33.09,33.09,0,0,1,33,33Z"/></g></g></svg>