<svg width="421" height="409" viewBox="0 0 421 409" fill="none" xmlns="http://www.w3.org/2000/svg">
<g filter="url(#filter0_d_2_773)">
<rect x="194.604" y="117.465" width="7.45577" height="7.45577" rx="3.72788" fill="url(#paint0_linear_2_773)"/>
</g>
<g filter="url(#filter1_d_2_773)">
<rect x="396.406" y="213.396" width="7.45577" height="7.45577" rx="3.72788" fill="url(#paint1_linear_2_773)"/>
</g>
<g filter="url(#filter2_d_2_773)">
<rect x="316.878" y="288.948" width="7.45577" height="7.45577" rx="3.72788" fill="url(#paint2_linear_2_773)"/>
</g>
<g filter="url(#filter3_d_2_773)">
<rect x="175.219" y="282.982" width="15.4086" height="15.4086" rx="7.70429" fill="url(#paint3_linear_2_773)"/>
</g>
<g filter="url(#filter4_d_2_773)">
<rect x="312.405" y="260.119" width="8.94692" height="8.94692" rx="4.47346" fill="url(#paint4_linear_2_773)"/>
</g>
<g filter="url(#filter5_d_2_773)">
<rect x="72.8264" y="259.621" width="8.94692" height="8.94692" rx="4.47346" fill="url(#paint5_linear_2_773)"/>
</g>
<g filter="url(#filter6_d_2_773)">
<rect x="265.185" y="300.38" width="4.47346" height="4.47346" rx="2.23673" fill="url(#paint6_linear_2_773)"/>
</g>
<path d="M224.658 45.8401C224.658 45.8401 180.794 47.2593 169.691 67.4819C158.879 87.1765 179.426 124.184 179.426 124.184C179.426 124.184 209.442 173.579 201.167 205.322C187.042 259.515 96.8829 203.526 64.6892 249.351C28.8365 300.384 84.2362 407.853 84.2362 407.853" stroke="#FF6631" stroke-width="0.580569"/>
<path d="M368.302 380.725C368.302 380.725 398.315 348.704 391.866 326.554C385.585 304.982 344.888 293.344 344.888 293.344C344.888 293.344 288.737 279.64 272.141 251.343C243.81 203.035 347.151 178.873 337.513 123.706C326.779 62.2684 211.613 25.4494 211.613 25.4494" stroke="#FF6631" stroke-width="0.870854"/>
<circle cx="274.132" cy="186.058" r="2.98231" fill="url(#paint7_linear_2_773)"/>
<circle cx="289.043" cy="204.788" r="2.98231" fill="url(#paint8_linear_2_773)"/>
<circle cx="298.487" cy="204.789" r="1.49115" fill="url(#paint9_linear_2_773)"/>
<circle cx="295.721" cy="211.466" r="1.49115" transform="rotate(45 295.721 211.466)" fill="url(#paint10_linear_2_773)"/>
<circle cx="288.883" cy="214.232" r="1.49115" transform="rotate(90 288.883 214.232)" fill="url(#paint11_linear_2_773)"/>
<circle cx="282.205" cy="211.467" r="1.49115" transform="rotate(135 282.205 211.467)" fill="url(#paint12_linear_2_773)"/>
<circle cx="279.599" cy="204.789" r="1.49115" fill="url(#paint13_linear_2_773)"/>
<circle cx="282.365" cy="198.111" r="1.49115" transform="rotate(45 282.365 198.111)" fill="url(#paint14_linear_2_773)"/>
<circle cx="288.883" cy="195.345" r="1.49115" transform="rotate(90 288.883 195.345)" fill="url(#paint15_linear_2_773)"/>
<circle cx="295.561" cy="198.11" r="1.49115" transform="rotate(135 295.561 198.11)" fill="url(#paint16_linear_2_773)"/>
<path d="M256.848 282.711L259.448 283.177C262.21 283.669 264.047 286.308 263.554 289.069L263.077 291.736C262.584 294.497 259.945 296.335 257.185 295.842L254.585 295.377C251.824 294.884 249.985 292.245 250.478 289.484L250.955 286.818C251.448 284.056 254.087 282.218 256.848 282.711ZM274.143 210.958C280.898 212.165 285.575 215.501 288.177 220.964C290.249 225.279 290.825 230.014 289.903 235.168C288.362 243.79 282.992 251.292 273.794 257.673C270.586 259.897 268.573 262.794 267.75 266.362C267.447 267.545 267.164 268.871 266.902 270.338C266.408 273.099 263.77 274.937 261.009 274.443L258.409 273.979C255.648 273.485 253.809 270.847 254.302 268.086V268.085C255.709 260.219 258.686 254.722 263.235 251.59C268.151 248.203 271.776 244.472 274.11 240.394C275.452 238.02 276.373 235.433 276.874 232.633C277.389 229.744 277.15 227.363 276.156 225.487C275.073 223.323 273.147 222.176 270.373 222.047C267.784 221.906 265.647 223.336 263.965 226.337C263.88 226.481 263.797 226.63 263.716 226.782C262.524 229 259.875 229.998 257.511 229.133L255.193 228.284C252.324 227.235 251.016 223.899 252.418 221.185C253.81 218.487 255.647 216.199 257.927 214.319C260.399 212.285 263.553 211.059 267.389 210.644C269.402 210.409 271.653 210.512 274.143 210.958Z" fill="#DDDDDD"/>
<path d="M158.127 293.352L160.286 293.455C162.579 293.564 164.35 295.511 164.24 297.804L164.135 300.019C164.026 302.312 162.078 304.082 159.785 303.974L157.626 303.871C155.333 303.761 153.563 301.814 153.672 299.521L153.778 297.306C153.887 295.013 155.834 293.243 158.127 293.352ZM164.594 233.291C170.203 233.558 174.351 235.772 177.039 239.932C179.176 243.215 180.142 246.997 179.939 251.277C179.598 258.438 176.031 265.093 169.238 271.242C166.87 273.386 165.541 275.949 165.251 278.932C165.129 279.924 165.039 281.03 164.981 282.248C164.872 284.541 162.925 286.311 160.631 286.203L158.472 286.1C156.179 285.99 154.409 284.043 154.518 281.75C154.829 275.217 156.666 270.441 160.028 267.42C163.66 264.152 166.208 260.742 167.673 257.185C168.511 255.116 168.985 252.92 169.096 250.595C169.211 248.197 168.765 246.288 167.759 244.872C166.653 243.229 164.968 242.502 162.704 242.689C160.587 242.848 159.004 244.233 157.955 246.847C157.902 246.974 157.85 247.103 157.8 247.234C157.067 249.16 155.022 250.249 153.013 249.797L151.042 249.353C148.602 248.803 147.189 246.235 148.04 243.884C148.885 241.547 150.134 239.497 151.787 237.73C153.579 235.819 156.009 234.491 159.079 233.75C160.688 233.346 162.526 233.192 164.594 233.291" fill="#DDDDDD"/>
<path d="M196.208 206.93L197.855 206.641C199.603 206.334 201.269 207.503 201.576 209.251L201.872 210.94C202.179 212.688 201.011 214.354 199.262 214.661L197.616 214.949C195.868 215.257 194.201 214.088 193.894 212.339L193.598 210.652C193.291 208.903 194.46 207.236 196.208 206.93ZM190.893 160.524C195.17 159.773 198.675 160.739 201.409 163.421C203.578 165.535 204.949 168.225 205.522 171.488C206.48 176.948 204.918 182.573 200.838 188.366C199.415 190.384 198.848 192.543 199.135 194.842C199.212 195.613 199.332 196.462 199.494 197.39C199.802 199.139 198.633 200.805 196.885 201.111L195.238 201.4C193.49 201.707 191.824 200.538 191.516 198.79C190.642 193.809 191.218 189.894 193.241 187.045C195.426 183.963 196.77 180.958 197.271 178.027C197.552 176.324 197.537 174.586 197.226 172.813C196.906 170.984 196.245 169.621 195.247 168.723C194.134 167.671 192.739 167.408 191.062 167.934C189.493 168.413 188.533 169.726 188.186 171.877C188.167 171.981 188.15 172.087 188.134 172.196C187.908 173.772 186.551 174.942 184.958 174.941L183.396 174.941C181.463 174.94 179.96 173.242 180.203 171.324C180.445 169.418 181.038 167.659 181.985 166.047C183.013 164.3 184.622 162.886 186.811 161.806C187.956 161.228 189.316 160.8 190.893 160.524" fill="#DDDDDD"/>
<path d="M75.7493 256.527L76.8423 256.809C78.0027 257.11 78.6994 258.294 78.399 259.454L78.1087 260.574C77.8084 261.736 76.624 262.432 75.4637 262.132L74.3706 261.849C73.2103 261.548 72.5136 260.365 72.8139 259.204L73.1042 258.083C73.4046 256.923 74.5889 256.226 75.7493 256.527ZM85.4626 226.518C88.3012 227.254 90.1853 228.828 91.1158 231.241C91.8574 233.147 91.948 235.183 91.3867 237.35C90.4485 240.973 87.9157 243.994 83.7875 246.412C82.3484 247.255 81.3955 248.423 80.9288 249.917C80.7608 250.411 80.5967 250.966 80.4372 251.583C80.1369 252.743 78.9525 253.44 77.7921 253.139L76.6999 252.857C75.5395 252.556 74.8421 251.372 75.1424 250.212C75.9986 246.905 77.4469 244.661 79.4882 243.475C81.6928 242.192 83.3594 240.721 84.4873 239.06C85.1359 238.092 85.6136 237.02 85.9178 235.843C86.2321 234.63 86.2081 233.607 85.845 232.775C85.4556 231.818 84.6715 231.266 83.4941 231.121C82.3957 230.975 81.4389 231.514 80.6238 232.739C80.5827 232.798 80.5425 232.859 80.503 232.921C79.9224 233.826 78.7613 234.165 77.7821 233.72L76.823 233.282C75.6347 232.74 75.1858 231.277 75.8724 230.167C76.5536 229.063 77.4105 228.148 78.4431 227.421C79.5633 226.635 80.9473 226.216 82.5954 226.164C83.4608 226.13 84.4168 226.248 85.4626 226.518Z" fill="#DDDDDD"/>
<path d="M118.68 261.315L122.054 260.449C125.636 259.528 129.286 261.687 130.206 265.27L131.094 268.729C132.015 272.312 129.856 275.962 126.273 276.882L122.9 277.748C119.317 278.668 115.667 276.509 114.747 272.927L113.859 269.467C112.939 265.884 115.098 262.234 118.68 261.315ZM100.139 165.769C108.902 163.518 116.341 164.959 122.453 170.088C127.3 174.13 130.583 179.495 132.301 186.183C135.174 197.37 132.839 209.308 125.298 222C122.668 226.425 121.838 231.002 122.807 235.732C123.09 237.318 123.476 239.063 123.966 240.966C124.885 244.549 122.727 248.199 119.145 249.118L115.77 249.984C112.189 250.905 108.538 248.747 107.618 245.164C104.997 234.957 105.559 226.731 109.302 220.484C113.344 213.73 115.649 207.269 116.217 201.099C116.527 197.516 116.215 193.908 115.282 190.276C114.32 186.529 112.729 183.803 110.509 182.098C108.026 180.094 105.085 179.773 101.687 181.137C98.5049 182.384 96.7245 185.269 96.3498 189.791C96.3281 190.011 96.3096 190.235 96.2949 190.462C96.0789 193.774 93.4485 196.423 90.1385 196.679L86.8935 196.93C82.8775 197.242 79.4824 193.957 79.6766 189.933C79.8702 185.935 80.82 182.184 82.5261 178.681C84.3777 174.887 87.4911 171.69 91.8647 169.092C94.1514 167.707 96.9087 166.598 100.139 165.769" fill="#DDDDDD"/>
<path d="M339.456 263.543L341.84 262.931C344.371 262.28 346.951 263.806 347.601 266.337L348.229 268.783C348.879 271.314 347.354 273.893 344.822 274.543L342.438 275.156C339.906 275.806 337.327 274.28 336.677 271.749L336.049 269.304C335.399 266.772 336.924 264.193 339.456 263.543ZM326.354 196.023C332.546 194.433 337.803 195.451 342.122 199.076C345.548 201.931 347.868 205.723 349.082 210.449C351.111 218.354 349.462 226.791 344.133 235.76C342.274 238.886 341.688 242.121 342.373 245.464C342.572 246.585 342.846 247.818 343.191 249.163C343.841 251.694 342.315 254.273 339.784 254.923L337.4 255.536C334.869 256.186 332.289 254.66 331.639 252.129C329.787 244.917 330.184 239.104 332.829 234.689C335.685 229.916 337.314 225.35 337.716 220.989C337.934 218.458 337.714 215.908 337.055 213.341C336.375 210.693 335.25 208.767 333.682 207.562C331.927 206.146 329.849 205.919 327.448 206.882C325.199 207.764 323.941 209.803 323.676 212.998C323.66 213.154 323.647 213.312 323.637 213.472C323.485 215.814 321.625 217.685 319.286 217.866L316.993 218.044C314.155 218.264 311.756 215.943 311.894 213.099C312.03 210.274 312.701 207.623 313.907 205.147C315.216 202.466 317.416 200.207 320.507 198.371C322.122 197.392 324.071 196.609 326.354 196.023" fill="#DDDDDD"/>
<path d="M328.552 151.523L329.87 151.185C331.269 150.826 332.695 151.668 333.054 153.068L333.401 154.419C333.761 155.819 332.917 157.245 331.519 157.603L330.2 157.942C328.801 158.301 327.375 157.458 327.016 156.059L326.669 154.707C326.31 153.308 327.153 151.883 328.552 151.523ZM321.31 114.202C324.733 113.323 327.639 113.885 330.025 115.89C331.92 117.468 333.201 119.563 333.873 122.176C334.994 126.545 334.083 131.209 331.137 136.166C330.11 137.895 329.786 139.682 330.164 141.53C330.275 142.15 330.426 142.831 330.617 143.574C330.976 144.974 330.133 146.4 328.733 146.759L327.416 147.097C326.016 147.456 324.59 146.613 324.231 145.215C323.208 141.227 323.427 138.015 324.889 135.574C326.468 132.936 327.369 130.412 327.59 128.002C327.711 126.603 327.589 125.193 327.225 123.774C326.849 122.311 326.228 121.246 325.36 120.58C324.391 119.798 323.242 119.672 321.914 120.204C320.671 120.692 319.976 121.819 319.83 123.585C319.821 123.672 319.813 123.759 319.808 123.847C319.724 125.142 318.696 126.176 317.404 126.276L316.136 126.374C314.567 126.495 313.241 125.213 313.317 123.641C313.393 122.079 313.764 120.614 314.43 119.246C315.153 117.764 316.37 116.514 318.078 115.5C318.971 114.959 320.048 114.526 321.31 114.202" fill="#DDDDDD"/>
<path d="M151.753 174.795C151.753 174.795 159.378 137.621 142.004 139.453L125.395 174.034C125.395 174.034 136.528 178.598 151.753 174.795Z" fill="#361710"/>
<path d="M113.043 174.795C113.043 174.795 108.816 144.65 121.929 137L139.401 174.034C139.401 174.034 128.269 178.598 113.043 174.795Z" fill="#361710"/>
<path d="M86.1268 166.459H88.1487C90.296 166.459 92.037 168.199 92.037 170.346V172.42C92.037 174.568 90.296 176.308 88.1487 176.308H86.1268C83.9794 176.308 82.2393 174.568 82.2393 172.42V170.346C82.2393 168.199 83.9794 166.459 86.1268 166.459ZM89.4972 110.057C94.7494 110.057 98.7236 111.94 101.42 115.707C103.562 118.679 104.634 122.17 104.634 126.179C104.634 132.884 101.597 139.26 95.525 145.308C93.4071 147.416 92.28 149.87 92.1415 152.67C92.0718 153.602 92.037 154.638 92.037 155.779C92.037 157.927 90.296 159.667 88.1487 159.667H86.1268C83.9794 159.667 82.2393 157.927 82.2393 155.779C82.2393 149.662 83.7426 145.118 86.7491 142.146C89.9972 138.931 92.2258 135.631 93.4365 132.244C94.127 130.274 94.473 128.201 94.473 126.023C94.473 123.777 93.9722 122.015 92.9697 120.736C91.8636 119.251 90.2565 118.644 88.1487 118.921C86.1786 119.163 84.7613 120.529 83.8982 123.016C83.8533 123.137 83.8107 123.26 83.7697 123.386C83.1705 125.218 81.3088 126.327 79.4107 125.994L77.5498 125.666C75.2461 125.261 73.8117 122.924 74.5022 120.69C75.1881 118.469 76.2641 116.498 77.7286 114.773C79.3186 112.908 81.5302 111.56 84.3649 110.731C85.8504 110.282 87.5604 110.057 89.4972 110.057" fill="#FF6631"/>
<path d="M134.5 319.171C134.5 319.171 133.538 322.889 131.807 322.328C128.571 321.283 128.383 319.171 128.383 319.171C128.383 319.171 126.342 325.323 126.731 328.253C127.119 331.183 126.731 337.771 126.731 337.771H129.684C129.684 337.771 132.446 338.107 133.591 339.772C134.736 341.437 141.01 340.943 142.999 339.875C145.546 338.507 138.86 331.546 136.494 327.667C134.129 323.788 134.5 319.171 134.5 319.171Z" fill="#1C0906"/>
<path d="M128.974 264.418C131.014 259.377 138.294 259.434 140.089 264.565C140.413 265.49 140.647 266.459 140.8 267.439C141.555 272.251 140.797 279.964 138.81 289.816C136.129 303.107 134.68 329.621 130.023 330.011C125.366 330.401 128.104 308.106 128.006 294.922C127.909 281.738 125.832 272.179 128.78 264.898L128.974 264.418Z" fill="#CF9166"/>
<path d="M131.653 302.449C131.016 285.058 132.173 272.157 129.398 262.987L129.217 262.384C127.296 256.037 121.425 257.167 120.254 264.192C120.044 265.458 119.907 266.768 119.836 268.083C119.489 274.535 120.519 284.591 122.657 297.287C125.543 314.417 126.244 330.173 130.023 330.011C133.801 329.849 132.29 319.841 131.653 302.449Z" fill="#EDAC7C"/>
<path d="M126.377 322.229C126.377 322.229 127.2 328.797 129.492 328.4C131.747 328.009 132.494 322.229 132.494 322.229C132.494 322.229 134.535 328.381 134.146 331.311C133.927 332.962 133.955 335.774 134.021 337.915C134.07 339.511 132.79 340.828 131.193 340.828C131.193 340.828 128.431 341.164 127.285 342.829C126.141 344.495 119.867 344.001 117.878 342.933C115.33 341.565 122.017 334.605 124.383 330.726C126.748 326.846 126.377 322.229 126.377 322.229Z" fill="#361710"/>
<path d="M145.911 222.571L131.127 219.894V219.791L130.843 219.843L130.559 219.791V219.894L115.776 222.571C115.776 222.571 110.547 230.358 111.571 239.518C112.593 248.677 117.308 298.214 117.308 298.214H142.759C142.759 298.214 149.093 248.677 150.116 239.518C151.138 230.358 145.911 222.571 145.911 222.571Z" fill="#3E150D"/>
<path d="M147.673 225.87C146.74 223.807 145.911 222.57 145.911 222.57L131.127 219.893V219.79L130.843 219.842L130.56 219.79V219.893L115.776 222.57C115.776 222.57 114.947 223.807 114.015 225.87H147.673Z" fill="#0D435E"/>
<path d="M134.022 298.213L134.195 248.726L138.433 298.213" fill="#EFC8B1"/>
<path d="M111.448 236.562C112.883 236.52 115.3 236.235 118.798 235.129C124.931 233.19 124.983 225.094 124.983 225.094L124.819 220.934L115.776 222.572C115.776 222.572 111.636 228.744 111.448 236.562Z" fill="#0D435E"/>
<path d="M150.238 236.563C150.052 228.744 145.911 222.571 145.911 222.571L136.246 220.821L135.999 225.093C135.999 225.093 136.051 233.189 142.184 235.128C146.341 236.444 148.971 236.599 150.238 236.563Z" fill="#0D435E"/>
<path d="M116.601 180.576L127.104 176.308L135.347 176.397L148.225 181.768C148.225 181.768 141.512 204.844 141.954 210.798C142.396 216.753 145.911 223.491 145.911 223.491H116.601C116.601 223.491 121.849 212.874 120.697 206.611C119.544 200.347 116.601 180.576 116.601 180.576Z" fill="#F8D0B7"/>
<path d="M141.242 144.5C137.678 137.832 118.838 135.47 115.374 156.434C112.848 171.712 130.036 175.314 138.748 172.517C153.571 167.758 144.807 151.168 141.242 144.5Z" fill="#3E150D"/>
<path d="M144.309 158.683C144.309 158.683 146.973 155.263 149.425 157.51C151.877 159.758 148.373 166.685 143.677 165.056L144.309 158.683Z" fill="#EDAC7C"/>
<path d="M144.07 161.098L143.743 164.378C147.805 165.107 150.123 159.452 148.255 158.668C146.744 158.034 144.869 160.018 144.07 161.098Z" fill="#F7A588"/>
<path d="M148.909 159.839C148.909 159.839 148.901 159.814 148.889 159.767C148.877 159.72 148.854 159.654 148.828 159.57C148.767 159.408 148.662 159.172 148.463 159.003C148.414 158.961 148.356 158.927 148.296 158.898C148.265 158.885 148.235 158.87 148.2 158.859L148.178 158.852L148.176 158.851C148.194 158.857 148.18 158.853 148.183 158.854L148.18 158.853L148.171 158.851L148.155 158.847L148.091 158.829C148.045 158.815 148.01 158.811 147.975 158.805C147.942 158.799 147.904 158.794 147.861 158.791C147.822 158.789 147.782 158.787 147.743 158.787C147.7 158.787 147.66 158.786 147.618 158.791C147.284 158.815 146.931 158.945 146.595 159.125C146.424 159.212 146.262 159.319 146.101 159.425C145.942 159.534 145.786 159.646 145.638 159.759C145.343 159.987 145.074 160.217 144.842 160.415C144.378 160.825 144.07 161.098 144.07 161.098C144.07 161.098 144.11 161.001 144.196 160.84C144.285 160.681 144.417 160.456 144.602 160.203C144.696 160.078 144.798 159.941 144.917 159.805C145.036 159.669 145.167 159.529 145.311 159.392C145.6 159.119 145.938 158.849 146.328 158.641C146.523 158.538 146.73 158.449 146.946 158.389C147.163 158.328 147.39 158.296 147.613 158.304C147.668 158.305 147.722 158.31 147.777 158.318C147.832 158.321 147.884 158.333 147.937 158.345C147.989 158.355 148.041 158.37 148.095 158.388C148.15 158.405 148.201 158.422 148.236 158.441L148.298 158.47L148.336 158.488L148.371 158.506C148.417 158.53 148.459 158.559 148.499 158.589C148.577 158.651 148.646 158.719 148.699 158.791C148.812 158.932 148.867 159.084 148.898 159.215C148.932 159.345 148.935 159.461 148.937 159.552C148.937 159.644 148.926 159.718 148.921 159.766C148.913 159.815 148.909 159.839 148.909 159.839Z" fill="#CF9166"/>
<path d="M119.614 158.416C119.614 158.416 117.024 154.94 114.526 157.134C112.024 159.327 115.379 166.329 120.11 164.801L119.614 158.416Z" fill="#EDAC7C"/>
<path d="M119.801 160.837L120.057 164.123C115.981 164.766 113.786 159.062 115.671 158.318C117.194 157.717 119.027 159.74 119.801 160.837Z" fill="#F7A588"/>
<path d="M114.992 159.475C114.992 159.475 114.999 159.451 115.012 159.403C115.026 159.356 115.05 159.29 115.079 159.207C115.142 159.045 115.251 158.813 115.455 158.648C115.505 158.607 115.562 158.574 115.624 158.546C115.656 158.535 115.686 158.52 115.718 158.511L115.745 158.503L115.746 158.502C115.727 158.509 115.742 158.503 115.739 158.505H115.742L115.75 158.501L115.766 158.498L115.831 158.482C115.876 158.469 115.913 158.465 115.948 158.46C115.982 158.454 116.02 158.451 116.061 158.45C116.101 158.447 116.14 158.446 116.181 158.448C116.222 158.448 116.263 158.449 116.304 158.455C116.636 158.484 116.988 158.621 117.32 158.81C117.488 158.902 117.65 159.01 117.808 159.121C117.964 159.233 118.118 159.348 118.264 159.465C118.554 159.7 118.817 159.935 119.045 160.137C119.5 160.557 119.802 160.837 119.802 160.837C119.802 160.837 119.764 160.739 119.68 160.577C119.597 160.416 119.469 160.187 119.289 159.93C119.199 159.804 119.098 159.664 118.982 159.526C118.866 159.388 118.74 159.245 118.598 159.104C118.316 158.826 117.983 158.549 117.598 158.331C117.406 158.226 117.199 158.132 116.984 158.067C116.769 158.001 116.543 157.964 116.321 157.967C116.265 157.967 116.211 157.972 116.156 157.977C116.101 157.98 116.048 157.989 115.994 158.001C115.944 158.009 115.891 158.023 115.836 158.041C115.782 158.057 115.731 158.073 115.694 158.092L115.632 158.118L115.594 158.135L115.558 158.153C115.512 158.176 115.468 158.204 115.427 158.233C115.349 158.294 115.28 158.36 115.223 158.43C115.108 158.57 115.05 158.721 115.016 158.849C114.979 158.979 114.973 159.094 114.97 159.187C114.968 159.28 114.976 159.353 114.981 159.401C114.988 159.449 114.992 159.475 114.992 159.475Z" fill="#CF9166"/>
<path d="M134.796 169.203L128.111 169.129C128.111 169.129 127.741 179.596 127.716 179.596C127.716 179.596 128.184 181.689 131.15 181.767C134.116 181.844 134.871 179.672 134.871 179.672C134.847 179.614 134.796 169.203 134.796 169.203Z" fill="#EDAC7C"/>
<path d="M134.871 173.055L127.901 172.822C127.901 172.822 127.861 176.674 127.837 176.674C127.837 176.674 128.211 179.122 131.178 179.2C134.144 179.278 134.841 177.029 134.841 177.029C134.818 176.971 134.871 173.055 134.871 173.055Z" fill="#CF9166"/>
<path d="M134.775 171.127L128.09 171.055C128.09 171.055 127.99 172.391 127.901 173.528C127.888 173.692 129.806 174.004 130.014 174.039C131.647 174.316 133.261 174.123 134.858 173.735C134.819 172.57 134.775 171.127 134.775 171.127Z" fill="#CF9166"/>
<path d="M147.719 155.959C147.63 164.296 140.323 170.977 131.4 170.881C122.477 170.785 115.317 163.947 115.406 155.61C115.495 147.272 122.802 140.591 131.726 140.687C140.648 140.783 147.81 147.62 147.719 155.959Z" fill="#3E150D"/>
<path d="M146.004 155.735C145.892 151.089 143.942 146.682 139.372 144.83C137.048 143.887 134.488 143.615 131.99 143.629C129.522 143.643 126.894 143.774 124.564 144.643C120.393 146.201 119.261 143.658 118.793 147.896C118.746 148.311 118.195 150.086 117.63 155.43C117.529 156.382 117.502 157.328 117.527 158.289C117.584 160.449 117.904 162.618 118.587 164.675C119.413 167.172 120.815 169.496 122.871 171.203C124.039 172.173 125.387 172.921 126.819 173.444C129.184 174.306 131.442 174.607 133.929 174.177C135.615 173.886 137.262 173.353 138.748 172.518C141.214 171.132 143.074 168.957 144.247 166.432C145.233 164.307 145.76 161.989 145.97 159.669C146.085 158.399 146.124 157.107 146.013 155.837C146.01 155.803 146.004 155.769 146.004 155.735Z" fill="#EDAC7C"/>
<path d="M136.134 160.13C136.068 161.449 136.998 162.566 138.209 162.625C139.421 162.685 140.456 161.662 140.523 160.343C140.589 159.024 139.66 157.907 138.447 157.848C137.236 157.788 136.199 158.811 136.134 160.13Z" fill="#CF9166"/>
<path d="M136.161 159.572C136.095 160.892 137.024 162.008 138.236 162.068C139.449 162.128 140.484 161.105 140.55 159.786C140.617 158.467 139.688 157.349 138.475 157.29C137.264 157.232 136.227 158.253 136.161 159.572Z" fill="black"/>
<path d="M136.947 158.961C136.923 159.439 137.298 159.846 137.784 159.869C138.271 159.893 138.684 159.526 138.707 159.047C138.732 158.57 138.357 158.164 137.871 158.14C137.385 158.115 136.971 158.484 136.947 158.961Z" fill="white"/>
<path d="M123.046 159.615C122.98 160.934 123.909 162.051 125.121 162.11C126.334 162.17 127.369 161.147 127.435 159.828C127.501 158.509 126.573 157.391 125.36 157.333C124.149 157.275 123.112 158.295 123.046 159.615Z" fill="#CF9166"/>
<path d="M123.074 159.056C123.008 160.376 123.938 161.492 125.149 161.553C126.362 161.612 127.397 160.591 127.463 159.27C127.53 157.952 126.6 156.833 125.388 156.775C124.177 156.716 123.14 157.738 123.074 159.056Z" fill="black"/>
<path d="M123.86 158.446C123.837 158.924 124.21 159.331 124.697 159.354C125.183 159.378 125.597 159.011 125.621 158.531C125.644 158.054 125.27 157.647 124.783 157.624C124.297 157.6 123.884 157.968 123.86 158.446Z" fill="white"/>
<path d="M130.779 158.16C130.779 158.16 131.101 161.065 129.734 160.823C127.086 160.36 127.079 166.033 131.077 163.921C132.585 163.124 132.088 158.2 132.088 158.2L130.779 158.16Z" fill="#F48470"/>
<path d="M127.974 166.476C127.974 166.476 133.301 167.362 135.832 164.31C135.832 164.31 137.96 170.012 132.241 170.744C128.628 171.204 127.974 166.476 127.974 166.476Z" fill="#B43128"/>
<path d="M129.786 170.072C130.391 170.571 131.191 170.877 132.241 170.744C133.538 170.576 134.43 170.155 135.038 169.603C135.212 169.437 135.367 169.259 135.508 169.074C135.512 169.07 135.515 169.065 135.517 169.062C135.52 169.058 135.52 169.057 135.522 169.055C135.957 168.438 136.145 167.732 136.201 167.055C132.987 166.214 130.683 168.727 129.786 170.072Z" fill="#F05736"/>
<path d="M127.974 166.476C127.974 166.476 127.981 166.517 127.993 166.589C128.512 166.696 129.471 167.823 130.763 167.778C131.581 167.751 132.382 167.525 133.117 167.179C133.574 166.964 134.045 166.758 134.44 166.441C134.742 166.2 134.96 165.484 135.087 165.041C132.387 167.209 127.975 166.476 127.974 166.476Z" fill="white"/>
<path d="M128.331 166.811C128.561 167.878 129.452 170.812 132.205 170.46C133.73 170.266 134.801 169.684 135.39 168.734C136.202 167.421 135.911 165.698 135.702 164.879C133.413 167.149 129.586 166.948 128.331 166.811ZM131.711 171.058C128.352 171.023 127.694 166.563 127.689 166.514C127.676 166.426 127.707 166.336 127.773 166.273C127.84 166.21 127.931 166.181 128.023 166.196C128.075 166.204 133.216 167.018 135.608 164.13C135.674 164.052 135.777 164.012 135.88 164.03C135.983 164.047 136.069 164.116 136.105 164.213C136.147 164.325 137.127 167.015 135.887 169.027C135.203 170.133 133.989 170.807 132.279 171.025C132.08 171.051 131.893 171.061 131.711 171.058Z" fill="#F05B4E"/>
<path d="M125.902 166.165C125.889 167.382 124.875 168.359 123.636 168.345C122.397 168.331 121.403 167.334 121.415 166.116C121.429 164.898 122.444 163.923 123.682 163.935C124.921 163.95 125.915 164.947 125.902 166.165Z" fill="#F49B77"/>
<path d="M142.004 164.921C141.991 166.138 140.976 167.115 139.736 167.101C138.499 167.088 137.505 166.091 137.517 164.873C137.531 163.656 138.545 162.68 139.784 162.693C141.022 162.707 142.017 163.705 142.004 164.921Z" fill="#F49B77"/>
<path d="M121.536 153.59C121.536 153.59 121.585 153.499 121.702 153.357C121.76 153.289 121.832 153.2 121.924 153.115C122.014 153.024 122.122 152.93 122.247 152.832C122.37 152.735 122.51 152.638 122.665 152.543C122.82 152.453 122.987 152.355 123.169 152.279C123.346 152.191 123.54 152.124 123.738 152.058C123.936 151.99 124.145 151.952 124.35 151.898C124.559 151.866 124.769 151.834 124.975 151.814C125.183 151.802 125.388 151.797 125.583 151.798C125.781 151.809 125.971 151.826 126.149 151.843C126.329 151.864 126.495 151.905 126.648 151.935C126.8 151.97 126.938 151.999 127.059 152.046C127.179 152.087 127.284 152.127 127.368 152.159C127.536 152.224 127.63 152.271 127.63 152.271C127.63 152.271 127.523 152.285 127.344 152.298C127.254 152.305 127.146 152.314 127.023 152.317C126.902 152.318 126.763 152.334 126.612 152.347C126.464 152.36 126.304 152.36 126.136 152.378C125.967 152.397 125.792 152.414 125.61 152.427C125.43 152.451 125.245 152.479 125.055 152.5C124.869 152.532 124.681 152.563 124.491 152.597C124.397 152.617 124.304 152.638 124.211 152.658C124.117 152.678 124.024 152.693 123.934 152.721C123.843 152.745 123.751 152.768 123.662 152.789C123.57 152.81 123.487 152.843 123.399 152.866C123.224 152.913 123.06 152.971 122.901 153.023C122.82 153.047 122.747 153.081 122.672 153.106C122.598 153.133 122.524 153.156 122.457 153.187C122.32 153.24 122.193 153.29 122.083 153.339C121.969 153.385 121.873 153.432 121.79 153.468C121.713 153.507 121.645 153.533 121.604 153.557C121.559 153.578 121.536 153.59 121.536 153.59Z" fill="black"/>
<path d="M140.623 156.777C140.623 156.777 140.562 156.692 140.429 156.567C140.36 156.507 140.281 156.428 140.178 156.353C140.077 156.277 139.956 156.197 139.823 156.116C139.688 156.035 139.536 155.957 139.37 155.884C139.203 155.813 139.027 155.738 138.835 155.686C138.648 155.622 138.448 155.579 138.243 155.539C138.039 155.497 137.827 155.486 137.616 155.461C137.404 155.454 137.194 155.449 136.985 155.456C136.778 155.471 136.574 155.492 136.378 155.517C136.185 155.554 135.999 155.595 135.823 155.634C135.65 155.678 135.491 155.74 135.343 155.791C135.196 155.844 135.061 155.891 134.949 155.952C134.834 156.008 134.737 156.062 134.658 156.105C134.497 156.192 134.411 156.248 134.411 156.248C134.411 156.248 134.518 156.25 134.698 156.24C134.787 156.235 134.896 156.23 135.019 156.218C135.14 156.203 135.278 156.201 135.429 156.193C135.578 156.188 135.737 156.168 135.908 156.164C136.076 156.161 136.252 156.156 136.433 156.146C136.616 156.148 136.804 156.151 136.994 156.146C137.183 156.153 137.373 156.162 137.566 156.17C137.661 156.178 137.756 156.186 137.851 156.194C137.946 156.202 138.041 156.206 138.135 156.222C138.228 156.236 138.321 156.245 138.413 156.255C138.506 156.264 138.595 156.285 138.683 156.298C138.863 156.322 139.033 156.359 139.198 156.39C139.281 156.402 139.357 156.427 139.435 156.442C139.512 156.459 139.589 156.473 139.658 156.494C139.801 156.531 139.934 156.563 140.05 156.597C140.169 156.629 140.269 156.663 140.354 156.688C140.437 156.717 140.507 156.734 140.552 156.752C140.598 156.768 140.623 156.777 140.623 156.777Z" fill="black"/>
<path d="M145.812 162.668C145.812 162.668 146.164 162.019 146.835 160.78C149.343 156.141 150.402 150.697 149.049 145.601C148.321 142.86 146.822 141.528 145.602 140.881C144.352 140.22 138.667 136.63 135.255 135.593C129.096 133.722 122.536 135.67 117.927 138.87C113.318 142.07 107.306 152.554 112.291 152.662C117.276 152.77 124.854 145.757 122.602 147.565C119.379 150.153 122.534 150.427 129.748 150.674C136.961 150.92 141.237 148.411 141.237 148.411C141.237 148.411 140.966 150.618 142.028 153.889C143.091 157.16 146.038 160.886 146.038 160.886" fill="#361710"/>
<path d="M123.228 177.884L124.982 222.465C124.982 222.465 124.931 230.561 118.797 232.501C112.664 234.441 109.843 233.859 109.843 233.859C109.843 233.859 116.509 205.123 115.172 198.688C113.836 192.253 111.787 181.971 111.787 181.971L123.228 177.884Z" fill="#F48470"/>
<path d="M138.583 177.765L135.999 222.465C135.999 222.465 136.051 230.561 142.184 232.501C148.317 234.441 151.139 233.859 151.139 233.859C151.139 233.859 144.472 205.123 145.809 198.688C147.146 192.253 149.194 181.972 149.194 181.972L138.583 177.765Z" fill="#122738"/>
<path d="M156.079 190.53C156.079 190.53 168.454 205.182 168.476 209.792C168.498 214.402 162.007 212.947 162.007 212.947L150.278 196.207L156.079 190.53Z" fill="#EDAC7C"/>
<path d="M156.079 190.53L150.278 196.206L154.941 202.861C154.941 202.861 157.706 198.738 162.716 199.048C159.478 194.555 156.079 190.53 156.079 190.53Z" fill="#CF9166"/>
<path d="M111.075 191.922C111.075 191.922 94.5423 201.643 89.9953 200.886C85.4475 200.129 87.9788 193.976 87.9788 193.976L106.461 185.246L111.075 191.922Z" fill="#EDAC7C"/>
<path d="M97.374 198.942C103.643 196.29 111.075 191.923 111.075 191.923L106.461 185.246L97.3694 189.54C97.3694 189.54 100.741 196.871 97.374 198.942" fill="#CF9166"/>
<path d="M165.681 213.034C165.714 213.015 165.747 212.995 165.78 212.975C167.082 212.188 168.04 210.916 168.695 209.541C170.089 206.617 170.826 203.228 171.886 200.16C172.712 197.769 173.461 195.192 174.472 192.787C174.317 192.716 174.172 192.626 174.042 192.504C172.757 191.3 172.124 190.484 170.644 189.527C170.22 193.22 165.037 200.471 162.873 206.233C162.446 207.372 162.073 208.551 162.031 209.766C161.954 212.052 163.196 214.47 165.681 213.034Z" fill="#EEC9B1"/>
<path d="M162.933 213.984C163.578 214.371 164.65 214.655 166.126 213.805L166.24 213.736C167.565 212.935 168.69 211.616 169.498 209.924C170.441 207.945 171.09 205.771 171.718 203.669C172.037 202.597 172.367 201.49 172.727 200.451C172.979 199.722 173.223 198.975 173.47 198.221C174.027 196.526 174.601 194.774 175.292 193.131L175.627 192.332L174.837 191.975C174.761 191.94 174.7 191.902 174.65 191.855C174.31 191.536 174.015 191.244 173.739 190.971C172.958 190.197 172.285 189.528 171.126 188.78L169.924 188.002L169.759 189.425C169.542 191.326 167.835 194.464 166.028 197.787C164.544 200.514 163.012 203.333 162.04 205.921C161.622 207.033 161.189 208.356 161.142 209.736C161.078 211.626 161.781 213.292 162.933 213.984Z" fill="#EDAC7C"/>
<path d="M173.563 190.323C173.564 190.317 174.546 187.351 174.925 187.236C175.305 187.12 175.979 187.39 175.979 187.39L174.842 191.643C174.842 191.643 176.426 188.082 177.044 187.777C177.661 187.47 178.352 187.794 178.352 187.794L176.463 192.691C176.463 192.691 177.58 189.154 178.24 188.597C178.902 188.042 179.684 188.278 179.684 188.278L178.089 193.56L177.946 192.892C177.946 192.892 179.036 191.021 179.703 190.879C180.37 190.735 181.012 190.896 181.012 190.896C181.012 190.896 179.813 192.799 179.296 194.022C178.778 195.245 177.84 195.471 177.84 195.471C175.737 194.827 173.943 193.257 172.214 191.914C170.877 190.875 169.924 188.001 169.924 188.001C169.924 188.001 171.737 186.323 173.563 190.323" fill="#EDAC7C"/>
<path d="M88.4278 199.048C88.403 199.018 88.3783 198.989 88.3543 198.959C87.3998 197.774 86.933 196.253 86.7859 194.736C86.474 191.512 86.9369 188.075 86.9872 184.828C87.0267 182.3 87.2024 179.621 87.0731 177.016C87.2419 177.002 87.4106 176.967 87.5732 176.897C89.1926 176.204 90.0658 175.652 91.7835 175.258C90.9219 178.874 93.3193 187.458 93.3874 193.613C93.4006 194.83 93.3479 196.064 92.9725 197.222C92.2657 199.397 90.2725 201.247 88.4278 199.048Z" fill="#EEC9B1"/>
<path d="M90.6862 200.878C89.9477 201.022 88.8431 200.924 87.7462 199.62L87.661 199.516C86.6895 198.312 86.0811 196.688 85.9 194.821C85.6886 192.639 85.821 190.375 85.9487 188.185C86.0137 187.069 86.0811 185.915 86.0981 184.815C86.1097 184.044 86.1345 183.258 86.1593 182.466C86.215 180.682 86.2723 178.839 86.1848 177.059L86.1415 176.193L87.0054 176.128C87.0897 176.122 87.1602 176.106 87.2229 176.079C87.6525 175.896 88.0272 175.722 88.3809 175.559C89.3787 175.097 90.2403 174.699 91.5841 174.391L92.9806 174.069L92.6493 175.464C92.2049 177.324 92.7391 180.857 93.3034 184.597C93.7671 187.666 94.2462 190.84 94.2772 193.604C94.2903 194.792 94.2462 196.182 93.8189 197.496C93.2345 199.294 92.0052 200.621 90.6862 200.878Z" fill="#EDAC7C"/>
<path d="M88.768 175.01C88.768 175.004 88.8578 171.881 88.5412 171.643C88.2231 171.406 87.4977 171.428 87.4977 171.428L87.1146 175.815C87.1146 175.815 86.8413 171.927 86.3645 171.429C85.8884 170.93 85.129 170.998 85.129 170.998L85.2335 176.247C85.2335 176.247 85.3907 172.54 84.9595 171.793C84.5283 171.045 83.7124 170.999 83.7124 170.999L83.409 176.508L83.7713 175.929C83.7713 175.929 83.385 173.8 82.8067 173.437C82.2285 173.074 81.5713 173.006 81.5713 173.006C81.5713 173.006 82.0481 175.206 82.117 176.532C82.1859 177.858 82.9902 178.389 82.9902 178.389C85.1878 178.502 87.4095 177.638 89.4933 176.965C91.1042 176.446 92.9806 174.069 92.9806 174.069C92.9806 174.069 91.8489 171.873 88.768 175.01Z" fill="#EDAC7C"/>
<path d="M149.194 181.971C149.194 181.971 159.271 190.025 161.673 194.74L151.081 202.387L143.063 190.531L149.194 181.971Z" fill="#122738"/>
<path d="M111.789 181.97C111.789 181.97 103.123 186.217 97.9456 188.965L102.615 200.395L117.412 194.939L111.789 181.97Z" fill="#F48470"/>
<path d="M131.985 339.299C130.551 339.599 128.34 338.762 126.681 341.33C125.081 343.806 121.322 343.767 121.051 343.762C123.563 344.084 126.532 343.926 127.285 342.83C128.431 341.165 131.193 340.829 131.193 340.829C132.79 340.829 134.069 339.511 134.021 337.916C134.018 337.823 134.015 337.721 134.013 337.625C133.497 338.333 132.759 339.138 131.985 339.299Z" fill="#1C0906"/>
<path d="M283.713 140.517L284.905 140.939C286.171 141.387 286.834 142.778 286.386 144.044L285.952 145.267C285.504 146.533 284.114 147.196 282.848 146.747L281.655 146.325C280.39 145.876 279.726 144.486 280.175 143.22L280.608 141.997C281.056 140.731 282.447 140.068 283.713 140.517ZM297.481 107.961C300.579 109.058 302.529 111 303.332 113.784C303.974 115.985 303.877 118.267 303.04 120.631C301.639 124.584 298.517 127.71 293.672 130.008C291.983 130.809 290.806 132.019 290.139 133.642C289.904 134.178 289.666 134.781 289.428 135.454C288.98 136.72 287.59 137.383 286.324 136.935L285.132 136.512C283.865 136.064 283.202 134.674 283.651 133.407C284.928 129.8 286.764 127.435 289.159 126.31C291.745 125.093 293.748 123.613 295.17 121.868C295.988 120.851 296.626 119.7 297.081 118.416C297.55 117.092 297.623 115.948 297.299 114.985C296.956 113.877 296.136 113.184 294.835 112.907C293.623 112.638 292.502 113.148 291.472 114.434C291.421 114.496 291.37 114.56 291.32 114.626C290.584 115.58 289.255 115.846 288.205 115.252L287.176 114.67C285.902 113.951 285.544 112.273 286.418 111.1C287.286 109.934 288.333 108.996 289.557 108.285C290.883 107.516 292.469 107.183 294.314 107.286C295.284 107.333 296.34 107.557 297.481 107.961Z" fill="#FF6631"/>
<path d="M200.443 144.114L202.186 144.455C204.037 144.817 205.244 146.612 204.882 148.462L204.532 150.251C204.17 152.101 202.375 153.308 200.524 152.946L198.781 152.605C196.93 152.243 195.723 150.449 196.086 148.598L196.436 146.81C196.798 144.959 198.591 143.751 200.443 144.114ZM212.863 96.0595C217.392 96.9459 220.501 99.2403 222.189 102.942C223.534 105.867 223.869 109.057 223.193 112.512C222.062 118.293 218.368 123.277 212.113 127.466C209.932 128.927 208.546 130.851 207.954 133.241C207.737 134.034 207.531 134.922 207.339 135.905C206.977 137.756 205.183 138.964 203.331 138.601L201.589 138.26C199.737 137.898 198.53 136.103 198.893 134.252C199.925 128.979 201.987 125.315 205.081 123.26C208.423 121.037 210.902 118.568 212.517 115.852C213.445 114.27 214.093 112.541 214.46 110.664C214.839 108.728 214.704 107.124 214.055 105.852C213.353 104.385 212.07 103.591 210.206 103.475C208.467 103.351 207.014 104.288 205.85 106.288C205.792 106.384 205.734 106.483 205.677 106.585C204.852 108.063 203.06 108.704 201.48 108.097L199.931 107.501C198.013 106.763 197.17 104.506 198.143 102.697C199.109 100.898 200.369 99.3796 201.923 98.1411C203.608 96.8003 205.742 96.0115 208.326 95.7747C209.682 95.6384 211.194 95.7329 212.863 96.0595" fill="#FF6631"/>
<path d="M172.34 175.065L173.565 174.75C174.866 174.416 176.192 175.2 176.526 176.501L176.848 177.758C177.183 179.058 176.399 180.384 175.097 180.718L173.872 181.033C172.572 181.367 171.246 180.583 170.912 179.281L170.589 178.025C170.255 176.724 171.039 175.399 172.34 175.065ZM165.606 140.365C168.789 139.547 171.49 140.07 173.71 141.933C175.471 143.401 176.663 145.349 177.287 147.779C178.33 151.841 177.482 156.178 174.744 160.787C173.788 162.394 173.487 164.056 173.839 165.773C173.942 166.349 174.082 166.983 174.259 167.674C174.593 168.976 173.809 170.301 172.508 170.635L171.283 170.95C169.982 171.283 168.657 170.5 168.323 169.199C167.371 165.492 167.575 162.504 168.934 160.236C170.403 157.783 171.239 155.437 171.445 153.196C171.558 151.895 171.444 150.584 171.106 149.265C170.756 147.904 170.179 146.914 169.372 146.295C168.47 145.567 167.403 145.45 166.168 145.946C165.013 146.399 164.366 147.447 164.23 149.089C164.222 149.169 164.215 149.25 164.21 149.332C164.132 150.536 163.176 151.498 161.974 151.59L160.796 151.682C159.337 151.794 158.105 150.602 158.175 149.14C158.245 147.689 158.59 146.327 159.21 145.054C159.883 143.676 161.013 142.515 162.601 141.571C163.432 141.068 164.433 140.666 165.606 140.365" fill="#FF6631"/>
<path d="M359.909 175.23L361.134 174.916C362.435 174.581 363.761 175.365 364.094 176.666L364.417 177.923C364.752 179.224 363.968 180.55 362.667 180.884L361.441 181.198C360.14 181.533 358.814 180.749 358.481 179.447L358.158 178.191C357.824 176.89 358.608 175.564 359.909 175.23ZM353.175 140.531C356.358 139.713 359.059 140.236 361.279 142.099C363.039 143.567 364.231 145.515 364.855 147.944C365.899 152.007 365.051 156.344 362.313 160.953C361.357 162.56 361.055 164.221 361.408 165.939C361.511 166.515 361.651 167.149 361.828 167.84C362.162 169.141 361.378 170.467 360.078 170.801L358.852 171.116C357.551 171.449 356.226 170.666 355.891 169.365C354.94 165.658 355.144 162.67 356.503 160.402C357.971 157.949 358.808 155.603 359.014 153.361C359.126 152.06 359.013 150.75 358.675 149.431C358.325 148.069 357.748 147.08 356.941 146.461C356.039 145.733 354.972 145.616 353.738 146.112C352.582 146.565 351.935 147.612 351.799 149.255C351.791 149.334 351.784 149.416 351.779 149.498C351.7 150.701 350.745 151.664 349.543 151.756L348.365 151.848C346.907 151.96 345.673 150.767 345.744 149.306C345.814 147.854 346.159 146.492 346.779 145.219C347.451 143.841 348.582 142.681 350.17 141.737C351.001 141.234 352.002 140.832 353.175 140.531" fill="#FF6631"/>
<path d="M221.17 221.204L226.333 199.397L216.943 199.043L212.01 219.172C211.661 220.593 211.743 222.085 212.242 223.459L221.216 248.153L231.964 247.116L221.17 221.204Z" fill="#A7A6BB"/>
<path d="M216.924 218.292C217.881 216.367 218.811 214.646 219.712 213.129C220.959 210.904 222.536 209.016 224.427 207.449L226.334 199.397L216.943 199.043L212.01 219.172C211.767 220.165 211.746 221.19 211.918 222.188C214.015 221.729 215.893 220.365 216.924 218.292Z" fill="#727293"/>
<path d="M230.319 293.141L230.09 294.201L228.89 299.77L223.576 324.422L222.997 327.1L222.868 327.704L221.799 339.412L220.54 339.793C217.345 340.764 214.081 340.554 211.232 339.385C210.065 338.907 208.876 337.742 208.047 336.816C207.108 335.767 206.349 334.563 205.761 333.285C204.071 329.61 203.68 325.424 203.592 321.429C203.562 320.078 203.569 318.727 203.569 317.375V304.129V292.547V288.339C204.545 288.339 205.641 288.217 206.424 288.164C207.129 288.118 208.396 287.882 209.123 287.882C211.97 286.905 214.906 287.172 217.654 286.838C218.959 286.679 220.222 286.603 221.411 286.554C223.069 286.488 224.584 286.587 225.876 286.907C228.588 287.582 230.319 289.363 230.319 293.141Z" fill="#1C1B2D"/>
<path d="M251.635 329.895L223.366 338.938L221.799 339.413L220.54 339.793C217.345 340.764 214.081 340.555 211.232 339.386C210.49 338.968 209.788 338.482 209.139 337.936C209.134 337.933 209.132 337.928 209.127 337.923C206.937 335.902 205.406 333.17 204.879 330.09L221.238 325.13L223.576 324.423L247.88 317.511L251.635 329.895Z" fill="#1C1B2D"/>
<path d="M266.606 331.935C266.243 330.358 265.608 328.406 265.467 327.79C264.927 325.426 264.129 323.119 263.45 320.793C263.201 319.942 262.898 319.354 262.793 319.168C262.741 319.082 262.748 319.087 262.793 319.168C262.869 319.292 263.067 319.598 263.455 320.129C262.745 319.158 262.176 318.244 261.706 317.142C261.176 315.899 260.769 314.654 260.463 313.415L242.987 318.634L246.944 331.887L255.143 329.439C255.649 329.288 256.182 329.575 256.333 330.08L257.176 332.908C257.438 333.784 257.815 334.592 258.269 335.338C258.745 335.172 259.23 335.034 259.726 334.927C261.893 334.46 263.959 333.693 266.033 332.951C266.209 332.605 266.398 332.266 266.606 331.935Z" fill="#361710"/>
<path d="M250.501 320.677C252.037 320.218 253.654 321.092 254.113 322.627C254.572 324.163 253.698 325.78 252.163 326.239C250.627 326.698 249.01 325.824 248.551 324.289C248.092 322.753 248.966 321.136 250.501 320.677Z" fill="white"/>
<path d="M257.252 333.139C258.986 338.491 264.682 341.506 270.1 339.888C270.606 339.736 270.894 339.204 270.743 338.699L268.114 329.896L257.252 333.139Z" fill="white"/>
<path d="M266.561 340.308C267.724 340.371 268.919 340.24 270.101 339.887C270.606 339.737 270.894 339.204 270.743 338.698L263.242 313.583C263.092 313.077 262.559 312.789 262.053 312.941L258.688 313.945L266.561 340.308Z" fill="white"/>
<path d="M251.344 250.668L249.821 253.788L241.838 270.14L228.698 297.053L203.915 287.016L211.503 269.762L216.946 257.393L225.28 238.444L251.344 250.668Z" fill="#A7A6BB"/>
<path d="M246.896 256.028C246.619 256.028 246.096 255.649 245.469 255.119C244.106 262.287 237.087 267.904 229.799 267.904C223.595 267.904 218.519 264.368 215.873 259.317L210.401 272.27L216.198 281.097C217.426 282.92 219.831 283.532 221.784 282.515L240.734 272.649L248.717 256.299C248.131 256.12 247.516 256.028 246.896 256.028Z" fill="#727293"/>
<path d="M238.792 259.963C237.357 259.963 235.991 259.756 234.692 259.403L218.786 291.982L204.31 286.119L203.915 287.016L228.698 297.054L248.473 256.55C245.699 258.675 242.278 259.963 238.792 259.963Z" fill="#727293"/>
<path d="M256.139 228.897C256.139 228.897 259.985 226.657 261.461 229.737C262.938 232.816 256.95 238.075 253.099 234.727L256.139 228.897Z" fill="#EDAC7C"/>
<path d="M254.987 231.107L253.421 234.108C257.012 236.356 261.384 231.854 259.903 230.393C258.706 229.211 256.161 230.384 254.987 231.107Z" fill="#F7A588"/>
<path d="M260.079 231.759C260.079 231.759 260.081 231.732 260.087 231.681C260.093 231.632 260.097 231.56 260.104 231.471C260.109 231.293 260.099 231.029 259.973 230.792C259.942 230.732 259.901 230.678 259.855 230.628C259.83 230.603 259.807 230.578 259.778 230.554L259.759 230.537L259.758 230.536C259.772 230.55 259.761 230.54 259.763 230.542L259.761 230.54L259.753 230.534L259.74 230.524L259.685 230.484C259.647 230.453 259.615 230.434 259.585 230.417C259.554 230.397 259.52 230.379 259.481 230.36C259.445 230.342 259.407 230.324 259.369 230.31C259.329 230.293 259.291 230.276 259.249 230.266C258.923 230.161 258.537 230.15 258.147 230.194C257.951 230.211 257.755 230.25 257.561 230.29C257.368 230.333 257.176 230.38 256.993 230.431C256.624 230.536 256.28 230.652 255.983 230.752C255.385 230.965 254.987 231.107 254.987 231.107C254.987 231.107 255.062 231.031 255.206 230.91C255.351 230.792 255.563 230.629 255.836 230.458C255.973 230.375 256.123 230.283 256.288 230.2C256.453 230.115 256.632 230.033 256.821 229.957C257.201 229.807 257.627 229.679 258.078 229.63C258.304 229.608 258.533 229.601 258.763 229.626C258.992 229.651 259.222 229.708 259.43 229.8C259.482 229.822 259.532 229.848 259.582 229.875C259.633 229.9 259.678 229.932 259.724 229.963C259.77 229.992 259.814 230.026 259.858 230.064C259.903 230.101 259.945 230.137 259.972 230.169L260.02 230.221L260.049 230.252L260.075 230.283C260.11 230.324 260.139 230.366 260.166 230.41C260.217 230.499 260.256 230.59 260.28 230.679C260.332 230.857 260.327 231.023 260.307 231.16C260.289 231.296 260.249 231.408 260.215 231.496C260.18 231.583 260.142 231.649 260.118 231.693C260.092 231.736 260.079 231.759 260.079 231.759Z" fill="#CF9166"/>
<path d="M232.71 219.201C232.71 219.201 231.572 214.898 228.352 216.033C225.13 217.167 225.65 225.121 230.742 225.475L232.71 219.201Z" fill="#EDAC7C"/>
<path d="M231.964 221.578L230.949 224.807C226.821 223.861 226.91 217.587 228.991 217.599C230.672 217.608 231.644 220.238 231.964 221.578Z" fill="#F7A588"/>
<path d="M227.901 218.44C227.901 218.44 227.917 218.42 227.949 218.381C227.98 218.341 228.027 218.287 228.087 218.22C228.208 218.089 228.401 217.909 228.659 217.83C228.722 217.811 228.789 217.802 228.859 217.799C228.894 217.799 228.928 217.796 228.962 217.801L228.99 217.803H228.992C228.971 217.803 228.988 217.803 228.984 217.803L228.987 217.803L228.996 217.804L229.013 217.806L229.081 217.817C229.129 217.821 229.165 217.832 229.199 217.841C229.235 217.847 229.272 217.858 229.312 217.874C229.351 217.885 229.389 217.9 229.427 217.917C229.466 217.933 229.504 217.949 229.542 217.971C229.847 218.126 230.129 218.392 230.374 218.698C230.499 218.85 230.611 219.015 230.72 219.181C230.826 219.348 230.929 219.516 231.022 219.683C231.209 220.018 231.371 220.342 231.511 220.623C231.782 221.197 231.964 221.579 231.964 221.579C231.964 221.579 231.964 221.47 231.947 221.284C231.93 221.099 231.895 220.832 231.821 220.519C231.784 220.363 231.741 220.192 231.683 220.016C231.626 219.84 231.56 219.655 231.479 219.467C231.316 219.094 231.106 218.703 230.822 218.348C230.679 218.173 230.518 218.005 230.338 217.861C230.158 217.717 229.957 217.595 229.744 217.514C229.692 217.491 229.637 217.475 229.583 217.46C229.53 217.441 229.476 217.429 229.42 217.421C229.369 217.409 229.313 217.402 229.254 217.398C229.196 217.392 229.141 217.388 229.099 217.392L229.031 217.393L228.987 217.395L228.947 217.399C228.894 217.402 228.841 217.413 228.791 217.425C228.693 217.453 228.602 217.489 228.52 217.534C228.359 217.624 228.246 217.745 228.164 217.854C228.078 217.964 228.029 218.071 227.991 218.159C227.953 218.246 227.934 218.319 227.92 218.367C227.907 218.415 227.901 218.44 227.901 218.44Z" fill="#CF9166"/>
<path d="M243.052 235.283L236.709 232.657C236.709 232.657 232.354 242.488 232.331 242.478C232.331 242.478 231.977 244.652 234.773 245.86C237.569 247.069 239.119 245.288 239.119 245.288C239.118 245.223 243.052 235.283 243.052 235.283Z" fill="#EDAC7C"/>
<path d="M241.013 240.562L234.241 238.209C234.241 238.209 232.73 241.67 232.706 241.66C232.706 241.66 232.445 243.397 235.24 244.607C238.037 245.815 239.495 244.319 239.495 244.319C239.494 244.255 241.013 240.562 241.013 240.562Z" fill="#CF9166"/>
<path d="M242.296 237.109L235.953 234.483C235.953 234.483 235.348 235.718 234.828 236.768C234.752 236.919 236.46 237.949 236.645 238.062C238.096 238.952 239.708 239.384 241.377 239.626C241.785 238.5 242.296 237.109 242.296 237.109Z" fill="#CF9166"/>
<path d="M258.905 218.948C253.34 218.948 248.678 216.107 245.866 211.876H230.536C230.254 212.799 229.997 213.804 229.773 214.918C228.088 223.311 230.288 234.232 238.752 237.736C247.218 241.24 257.156 235.515 260.429 227.607C261.622 224.723 261.811 221.663 261.17 218.768C260.422 218.885 259.664 218.948 258.905 218.948Z" fill="#3E150D"/>
<path d="M258.879 226.738C260.55 222.268 260.377 217.323 256.731 213.811C254.877 212.024 252.542 210.786 250.157 209.844C247.8 208.913 245.245 208.033 242.694 207.97C238.123 207.859 237.852 210.136 235.786 213.994C235.582 214.372 232.139 215.206 231.962 215.596C231.554 216.49 231.114 217.356 230.77 218.281C229.999 220.361 229.475 222.55 229.337 224.772C229.171 227.466 229.618 230.216 230.924 232.629C231.665 234.001 232.665 235.229 233.829 236.275C235.753 238 237.789 239.15 240.323 239.691C242.041 240.058 243.814 240.181 245.549 239.952C248.429 239.575 251.032 238.215 253.116 236.258C254.868 234.61 256.257 232.603 257.343 230.473C257.939 229.306 258.469 228.09 258.85 226.838C258.86 226.804 258.868 226.77 258.879 226.738Z" fill="#EDAC7C"/>
<path d="M247.563 225.732C246.996 226.963 247.454 228.384 248.585 228.903C249.718 229.423 251.095 228.845 251.663 227.613C252.23 226.381 251.772 224.962 250.64 224.442C249.508 223.922 248.13 224.499 247.563 225.732Z" fill="#CF9166"/>
<path d="M247.737 224.843C247.168 226.074 247.627 227.494 248.758 228.015C249.892 228.535 251.269 227.957 251.836 226.725C252.404 225.494 251.947 224.073 250.814 223.553C249.682 223.034 248.303 223.611 247.737 224.843Z" fill="black"/>
<path d="M248.718 224.562C248.512 225.008 248.715 225.539 249.169 225.746C249.623 225.955 250.157 225.764 250.363 225.317C250.568 224.871 250.366 224.341 249.913 224.132C249.459 223.923 248.924 224.115 248.718 224.562Z" fill="white"/>
<path d="M234.796 221.013C234.228 222.245 234.686 223.665 235.818 224.184C236.951 224.705 238.329 224.126 238.895 222.896C239.463 221.664 239.005 220.244 237.874 219.723C236.742 219.205 235.363 219.781 234.796 221.013Z" fill="#CF9166"/>
<path d="M235.036 220.491C234.468 221.723 234.927 223.143 236.059 223.663C237.191 224.183 238.568 223.605 239.136 222.373C239.704 221.142 239.246 219.721 238.114 219.202C236.982 218.682 235.603 219.26 235.036 220.491Z" fill="black"/>
<path d="M236.017 220.211C235.812 220.656 236.013 221.187 236.468 221.396C236.922 221.605 237.457 221.413 237.663 220.966C237.868 220.519 237.667 219.989 237.212 219.78C236.758 219.573 236.223 219.765 236.017 220.211Z" fill="white"/>
<path d="M242.88 221.322C242.88 221.322 242.139 226.15 240.783 225.714C238.154 224.873 237.356 230.643 241.716 229.052C243.363 228.452 244.206 221.544 244.206 221.544L242.88 221.322Z" fill="#F48470"/>
<path d="M234.454 218.411C234.454 218.411 234.536 218.343 234.7 218.253C234.783 218.21 234.885 218.153 235.006 218.107C235.126 218.054 235.264 218.007 235.421 217.961C235.576 217.916 235.747 217.877 235.929 217.846C236.112 217.818 236.308 217.79 236.511 217.786C236.713 217.771 236.923 217.781 237.138 217.794C237.353 217.804 237.566 217.848 237.782 217.877C237.993 217.925 238.206 217.975 238.41 218.035C238.612 218.103 238.809 218.176 238.995 218.251C239.18 218.337 239.354 218.426 239.517 218.511C239.681 218.599 239.823 218.702 239.957 218.789C240.088 218.88 240.21 218.962 240.307 219.052C240.405 219.137 240.489 219.215 240.558 219.278C240.693 219.404 240.765 219.485 240.765 219.485C240.765 219.485 240.657 219.459 240.482 219.401C240.393 219.373 240.287 219.34 240.167 219.298C240.052 219.252 239.914 219.214 239.766 219.167C239.619 219.124 239.468 219.062 239.3 219.016C239.132 218.969 238.958 218.918 238.78 218.862C238.598 218.815 238.413 218.772 238.224 218.718C238.035 218.677 237.843 218.636 237.649 218.595C237.552 218.578 237.455 218.562 237.359 218.546C237.261 218.53 237.167 218.508 237.07 218.499C236.974 218.489 236.879 218.475 236.785 218.462C236.691 218.446 236.599 218.445 236.505 218.434C236.321 218.412 236.142 218.405 235.97 218.393C235.884 218.385 235.802 218.39 235.722 218.385C235.64 218.383 235.562 218.377 235.486 218.379C235.335 218.378 235.194 218.377 235.071 218.381C234.944 218.382 234.835 218.39 234.743 218.392C234.654 218.4 234.579 218.399 234.531 218.406C234.48 218.41 234.454 218.411 234.454 218.411Z" fill="black"/>
<path d="M254.019 222.361C254.019 222.361 253.972 222.265 253.86 222.114C253.801 222.042 253.734 221.947 253.644 221.855C253.555 221.759 253.446 221.657 253.326 221.55C253.204 221.446 253.064 221.341 252.909 221.237C252.752 221.136 252.587 221.029 252.404 220.943C252.225 220.845 252.029 220.767 251.829 220.691C251.63 220.611 251.418 220.563 251.209 220.501C250.996 220.457 250.784 220.415 250.572 220.385C250.359 220.364 250.149 220.349 249.948 220.34C249.746 220.344 249.55 220.351 249.365 220.362C249.182 220.375 249.01 220.409 248.851 220.434C248.694 220.463 248.55 220.488 248.425 220.529C248.3 220.566 248.191 220.603 248.104 220.632C247.926 220.692 247.828 220.734 247.828 220.734C247.828 220.734 247.936 220.755 248.12 220.775C248.212 220.787 248.323 220.8 248.449 220.81C248.574 220.817 248.714 220.838 248.869 220.858C249.02 220.878 249.184 220.885 249.357 220.912C249.529 220.938 249.707 220.964 249.893 220.986C250.077 221.019 250.267 221.056 250.459 221.084C250.649 221.125 250.84 221.167 251.034 221.21C251.129 221.235 251.223 221.259 251.319 221.284C251.412 221.31 251.508 221.328 251.6 221.361C251.692 221.392 251.784 221.419 251.875 221.444C251.968 221.469 252.054 221.506 252.141 221.535C252.319 221.591 252.484 221.658 252.646 221.719C252.727 221.745 252.8 221.784 252.876 221.814C252.952 221.844 253.026 221.872 253.094 221.905C253.231 221.966 253.36 222.023 253.471 222.078C253.586 222.131 253.682 222.183 253.763 222.223C253.842 222.267 253.91 222.298 253.952 222.323C253.996 222.347 254.019 222.361 254.019 222.361Z" fill="black"/>
<path d="M259.05 226.973C259.05 226.973 259.973 225.361 260.869 223.151C259.927 225.387 259.05 226.973 259.05 226.973Z" fill="#CF9166"/>
<path d="M260.285 211.169C259.374 211.26 258.426 211.239 257.515 211.258C255.328 211.306 253.139 211.242 250.95 211.282C249.648 211.306 248.349 211.363 247.05 211.465C246.94 211.473 243.927 211.781 244.021 211.743C241.776 212.049 239.539 212.44 237.302 212.783C236.435 212.916 235.583 212.989 234.74 213.028C237.271 213.563 240.55 213.408 242.837 213.185C242.714 213.223 242.605 213.252 242.472 213.298C240.109 214.1 242.061 216.729 246.207 218.497C251.943 220.942 257.142 219.973 257.142 219.973C257.142 219.973 256.215 221.656 256.014 224.62C255.877 226.65 256.379 229.135 256.709 230.501C256.862 231.13 256.977 231.522 256.977 231.522L256.223 232.878C256.223 232.878 257.891 230.059 260.866 226.39C267.065 218.744 266.412 214.307 265.215 212.15C263.535 212.062 261.865 211.745 260.285 211.169Z" fill="#361710"/>
<path d="M259.882 220.896C259.882 220.896 247.547 221.428 226.956 213.24C217.103 209.322 233.221 209.043 233.221 209.043L252.286 208.607L259.882 220.896Z" fill="#2D2C44"/>
<path d="M262.402 224.492C262.402 224.492 261.68 222.971 259.882 220.897C257.813 218.508 254.319 215.384 248.864 213.007C238.676 208.567 233.22 209.044 233.22 209.044C233.22 209.044 234.05 203.061 241.936 200.083C245 198.925 248.156 198.615 251.173 199.107C256.236 199.931 260.91 203.009 264.113 208.124C269.199 216.246 262.402 224.492 262.402 224.492Z" fill="#2D2C44"/>
<path d="M259.882 220.896C257.814 218.507 254.319 215.384 248.864 213.007C238.676 208.566 233.221 209.044 233.221 209.044C233.221 209.044 234.05 203.061 241.936 200.082C245 198.925 248.157 198.615 251.173 199.107C253.782 200.239 256.25 202.003 258.416 204.391C264.215 210.785 260.84 218.922 259.882 220.896Z" fill="#A7A6BB"/>
<path d="M258.078 229.63C258.078 229.63 249.628 232.961 246.17 235.506C245.261 236.176 244.774 238.444 241.808 238.444C238.134 238.444 238.712 236.69 236.305 235.028C234.958 234.098 232.101 233.155 231.291 231.987C229.509 229.42 229.522 221.164 229.522 221.164C229.522 221.164 227.073 227.566 228.938 233.641C229.74 236.251 230.758 243.039 239.821 243.374C248.392 243.691 249.729 241.053 251.401 239.33C253.073 237.608 258.078 229.63 258.078 229.63Z" fill="#361710"/>
<path d="M200.003 223.771L203.416 225.469C207.041 227.271 208.518 231.672 206.716 235.297L204.975 238.797C203.172 242.422 198.772 243.9 195.147 242.097L191.734 240.399C188.109 238.597 186.632 234.197 188.434 230.572L190.175 227.071C191.978 223.446 196.378 221.969 200.003 223.771Z" fill="#FF6631"/>
<path d="M208.4 246.33L207.215 243.723C206.919 242.849 206.81 241.924 206.892 241.005L207.419 235.139C207.489 234.374 207.251 233.611 206.759 233.02L202.035 227.344C201.734 226.981 201.165 227.025 200.922 227.429C200.779 227.67 200.795 227.973 200.966 228.196L203.156 231.067L201.125 229.454C200.732 229.142 200.147 229.307 199.976 229.779C199.874 230.06 199.953 230.376 200.175 230.575L203.346 233.438L200.353 231.494C199.94 231.226 199.384 231.412 199.216 231.875C199.09 232.223 199.231 232.61 199.551 232.798L202.3 234.4L199.369 233.421C199.015 233.303 198.631 233.488 198.504 233.839C198.387 234.161 198.525 234.52 198.827 234.681L200.514 235.58C201.633 236.178 202.237 237.433 202.002 238.68L201.453 241.608C201.143 243.267 201.477 244.983 202.387 246.405L203.874 248.727L208.4 246.33Z" fill="#EDAC7C"/>
<path d="M245.524 250.785L225.243 261.644C223.898 262.366 222.224 261.93 221.398 260.646L209.542 242.369L200.718 247.177L217.794 275.106C219.024 276.929 221.428 277.54 223.379 276.525L251.409 261.931C254.186 260.485 255.48 257.22 254.449 254.265C253.173 250.61 248.936 248.958 245.524 250.785Z" fill="#A7A6BB"/>
<path d="M233.553 286.931C233.553 297.978 224.597 306.937 213.546 306.937L194.201 305.21L180.381 303.975V300.75C180.381 293.117 186.569 286.931 194.201 286.931H233.553Z" fill="#2D2C44"/>
<path d="M193.804 286.932V340.613L181.68 338.105L180.134 300.751C180.134 293.118 185.992 286.932 193.804 286.932Z" fill="#2D2C44"/>
<path d="M173.099 330.982C167.475 331.112 162.956 335.708 162.956 341.363C162.956 341.891 163.384 342.319 163.912 342.319H173.099V330.982Z" fill="white"/>
<path d="M180.468 321.463V330.02C180.468 330.547 180.04 330.976 179.513 330.976H173.342C173.025 330.976 172.711 330.99 172.401 331.018V339.348H194.3V321.463H180.468Z" fill="#361710"/>
<path d="M190.192 328.08C190.192 329.683 188.893 330.982 187.29 330.982C185.687 330.982 184.387 329.683 184.387 328.08C184.387 326.477 185.687 325.178 187.29 325.178C188.893 325.178 190.192 326.477 190.192 328.08Z" fill="white"/>
<path d="M163.567 337.85C163.173 338.947 162.956 340.129 162.956 341.362C162.956 341.89 163.384 342.317 163.912 342.317H193.344C193.872 342.317 194.3 341.89 194.3 341.362V337.85H163.567Z" fill="white"/>
<path d="M253.042 131.383C261.91 135.792 267.039 142.31 268.428 150.932C269.548 157.75 268.428 164.541 265.062 171.309C259.433 182.627 248.954 190.843 233.625 195.955C228.28 197.736 224.317 200.932 221.733 205.541C220.832 207.059 219.903 208.779 218.945 210.705C217.142 214.33 212.742 215.807 209.117 214.004L205.704 212.307C202.079 210.505 200.602 206.104 202.404 202.48C207.54 192.152 213.893 185.743 221.465 183.249C229.646 180.55 236.18 176.85 241.067 172.147C243.887 169.401 246.212 166.192 248.04 162.516C249.925 158.723 250.558 155.328 249.941 152.327C249.319 148.89 247.115 146.52 243.325 145.216C239.796 143.972 236.257 145.086 232.71 148.561C232.534 148.728 232.358 148.9 232.184 149.078C229.634 151.667 225.561 151.976 222.636 149.819L219.77 147.705C216.22 145.087 215.76 139.938 218.802 136.745C221.824 133.572 225.295 131.147 229.216 129.467C233.465 127.651 238.332 127.233 243.813 128.212C246.697 128.701 249.774 129.757 253.042 131.383Z" fill="#FF6631"/>
<path d="M238.839 235.846C239.078 235.846 239.284 235.683 239.345 235.452C239.583 234.529 240.415 233.845 241.413 233.845C242.412 233.845 243.243 234.529 243.481 235.452C243.541 235.683 243.748 235.846 243.987 235.846C244.322 235.846 244.587 235.532 244.505 235.206C244.156 233.82 242.909 232.792 241.413 232.792C239.917 232.792 238.67 233.82 238.321 235.206C238.239 235.532 238.503 235.846 238.839 235.846Z" fill="#F05B4E"/>
<path d="M248.127 234.921C247.639 232.605 245.999 230.692 243.802 229.855C243.388 229.698 242.919 229.772 242.592 230.068C242.228 230.395 241.832 230.746 241.413 230.746C240.973 230.746 240.558 230.377 240.179 230.034C239.856 229.743 239.398 229.661 238.988 229.809C237.008 230.52 235.431 232.109 234.748 234.135C234.537 234.762 234.844 235.488 235.478 235.678C236.099 235.864 236.712 235.516 236.898 234.934C237.533 232.956 239.428 231.574 241.599 231.7C243.77 231.825 245.493 233.416 245.896 235.453C245.997 235.965 246.426 236.343 246.945 236.374H246.946C247.709 236.374 248.284 235.668 248.127 234.921Z" fill="#361710"/>
<path d="M203.915 287.017C203.915 287.017 218.415 287.404 224.729 292.761C231.043 298.118 232.478 298.214 232.478 298.214C232.478 298.214 233.395 287.433 236.811 280.434C240.229 273.435 235.922 275.35 235.061 276.402C234.2 277.454 223.39 286.535 223.39 286.535L221.251 286.931L203.915 287.017Z" fill="#727293"/>
<path d="M289.899 180.976C289.899 180.976 288.943 184.64 290.515 185.476C292.089 186.312 296.111 186.751 296.151 185.476C296.19 184.201 297.306 182.967 295.315 182.091C293.323 181.215 290.974 180.976 290.974 180.976H289.899Z" fill="#C9BDBD"/>
<path d="M328.393 138.021C328.352 138.029 328.311 138.037 328.27 138.046C327.946 138.116 327.756 138.182 327.756 138.182V138.197C327.679 138.224 327.601 138.249 327.526 138.282C323.339 140.154 323.339 143.985 323.339 143.985L325.923 151.648C325.923 151.648 326.645 151.683 327.726 151.584L327.651 186.287L328.027 186.502C330.831 188.112 334.278 188.119 337.088 186.518L337.497 186.287C337.497 186.287 337.998 172.346 338.184 153.397C338.343 137.268 330.679 137.573 328.393 138.021Z" fill="#161616"/>
<path d="M322.295 143.492L323.843 141.451C324.04 141.192 324.403 141.131 324.67 141.315C326.361 142.477 331.873 146.694 331.121 151.772L322.295 143.492Z" fill="white"/>
<path d="M315.797 175.849C315.8 175.829 317.38 175.651 317.475 175.634C318.856 175.38 320.211 174.965 321.498 174.403C325.474 172.664 328.532 169.456 330.045 165.38C331.13 162.452 331.435 159.285 331.316 156.181C331.144 151.63 330.093 146.656 326.084 143.874C322.671 141.506 320.998 142.225 320.998 142.225C320.998 142.225 315.799 175.837 315.797 175.849Z" fill="#161616"/>
<path d="M316.727 170.018L309.774 169.576C309.774 169.576 308.817 180.447 308.791 180.445C308.791 180.445 309.164 182.649 312.245 182.893C315.328 183.135 316.233 180.916 316.233 180.916C316.21 180.854 316.727 170.018 316.727 170.018Z" fill="#F8D0B7"/>
<path d="M312.495 178.44C310.212 178.26 309.385 177.461 309.109 177.059C309.397 173.868 309.774 169.577 309.774 169.577L316.726 170.018C316.726 170.018 316.529 174.17 316.384 177.349C316.195 177.596 315.222 178.655 312.495 178.44Z" fill="#EFBDAC"/>
<path d="M313.752 173.494L306.8 173.052C306.8 173.052 306.623 174.438 306.468 175.615C306.445 175.786 308.424 176.215 308.639 176.263C310.323 176.64 312.013 176.528 313.697 176.211C313.718 174.997 313.752 173.494 313.752 173.494Z" fill="#CF9166"/>
<path d="M298.402 153.588C298.597 152.19 298.745 151.006 299.868 149.685C302.617 146.458 307.003 144.616 311.213 144.623C317.546 144.634 324.114 147.061 325.807 153.687C326.387 155.956 326.401 158.335 326.176 160.667C325.823 164.344 324.838 168.06 322.62 171.014C319.961 174.553 315.568 176.722 311.142 176.681C304.382 176.618 298.973 172.986 297.155 167.09C295.846 162.846 297.068 159.521 298.078 155.394C298.237 154.743 298.323 154.148 298.402 153.588Z" fill="#F8D0B7"/>
<path d="M328.533 161.435C328.548 161.455 328.568 161.483 328.568 161.483C328.568 161.483 328.564 161.453 328.558 161.399C328.549 161.346 328.537 161.264 328.503 161.163C328.469 161.064 328.422 160.939 328.328 160.807C328.237 160.675 328.106 160.525 327.9 160.401C327.798 160.338 327.678 160.283 327.546 160.236C327.479 160.215 327.41 160.195 327.337 160.181L327.282 160.17L327.221 160.161L327.126 160.147C327.068 160.136 326.99 160.13 326.909 160.127C326.827 160.121 326.748 160.119 326.673 160.123C326.594 160.123 326.516 160.126 326.438 160.135C326.36 160.143 326.281 160.15 326.204 160.165C326.114 160.18 326.027 160.205 325.939 160.227C325.946 159.633 325.926 159.038 325.867 158.449C326.637 158.34 327.499 158.415 328.455 158.816C332.484 160.508 330.49 168.232 324.133 168.553C324.297 168.212 324.445 167.865 324.583 167.514C327.988 166.527 329.241 163.173 328.533 161.435Z" fill="#F8D0B7"/>
<path d="M326.557 160.654C326.615 160.642 326.671 160.635 326.728 160.628C326.786 160.618 326.841 160.613 326.891 160.611C326.94 160.607 326.992 160.603 327.061 160.606L327.157 160.607L327.181 160.608H327.193H327.199C327.194 160.607 327.215 160.609 327.187 160.606H327.19L327.227 160.609C327.278 160.611 327.325 160.619 327.373 160.625C327.468 160.64 327.56 160.662 327.645 160.694C327.985 160.824 328.216 161.051 328.356 161.212C328.426 161.294 328.48 161.36 328.514 161.409C328.526 161.426 328.525 161.423 328.533 161.434C329.241 163.172 327.988 166.526 324.583 167.513C325.232 165.86 325.615 164.11 325.806 162.369C325.861 161.869 325.901 161.368 325.923 160.865C326.077 160.8 326.23 160.731 326.386 160.692C326.443 160.675 326.5 160.665 326.557 160.654Z" fill="#FFB7A1"/>
<path d="M326.438 160.135C326.517 160.125 326.595 160.123 326.672 160.122C326.748 160.119 326.826 160.12 326.908 160.126C326.99 160.13 327.069 160.136 327.127 160.147L327.22 160.161L327.281 160.17L327.336 160.181C327.409 160.195 327.48 160.215 327.546 160.236C327.678 160.282 327.798 160.338 327.9 160.401C328.106 160.525 328.237 160.674 328.329 160.807C328.422 160.939 328.469 161.063 328.503 161.163C328.537 161.264 328.549 161.346 328.558 161.399C328.564 161.453 328.567 161.482 328.567 161.482C328.567 161.482 328.548 161.455 328.533 161.435C328.525 161.424 328.526 161.426 328.514 161.409C328.48 161.36 328.425 161.295 328.357 161.213C328.216 161.052 327.986 160.825 327.644 160.695C327.561 160.663 327.468 160.64 327.374 160.625C327.325 160.62 327.278 160.612 327.227 160.61L327.19 160.606H327.188C327.215 160.61 327.193 160.607 327.199 160.608H327.193H327.181L327.158 160.607L327.062 160.606C326.992 160.603 326.94 160.607 326.89 160.611C326.84 160.613 326.787 160.618 326.728 160.628C326.671 160.635 326.614 160.642 326.557 160.654C326.5 160.665 326.442 160.675 326.387 160.692C326.229 160.732 326.077 160.801 325.923 160.866C325.933 160.654 325.937 160.441 325.939 160.227C326.027 160.205 326.114 160.18 326.203 160.165C326.28 160.15 326.36 160.143 326.438 160.135Z" fill="#FFA792"/>
<path d="M308.175 160.418C308.175 160.418 308.352 163.458 306.942 163.132C304.213 162.505 303.894 168.409 308.17 166.43C309.784 165.684 309.535 160.531 309.535 160.531L308.175 160.418Z" fill="#F48470"/>
<path d="M303.464 168.482C303.383 169.749 302.275 170.709 300.987 170.627C299.699 170.545 298.719 169.453 298.798 168.187C298.879 166.92 299.988 165.96 301.276 166.042C302.564 166.124 303.544 167.216 303.464 168.482Z" fill="#FFB7A1"/>
<path d="M320.287 168.067C320.207 169.335 319.098 170.294 317.808 170.212C316.521 170.131 315.542 169.04 315.621 167.773C315.702 166.507 316.811 165.547 318.098 165.628C319.387 165.709 320.368 166.803 320.287 168.067Z" fill="#FFB7A1"/>
<path d="M299.315 158.571C299.315 158.571 299.38 158.485 299.524 158.359C299.595 158.298 299.683 158.219 299.793 158.146C299.9 158.068 300.027 157.989 300.171 157.909C300.314 157.829 300.475 157.751 300.648 157.681C300.823 157.612 301.01 157.54 301.211 157.49C301.409 157.431 301.618 157.393 301.833 157.359C302.048 157.32 302.269 157.316 302.489 157.296C302.709 157.297 302.93 157.298 303.146 157.311C303.362 157.334 303.573 157.362 303.774 157.393C303.976 157.438 304.168 157.487 304.349 157.534C304.531 157.585 304.695 157.655 304.846 157.712C304.997 157.773 305.136 157.825 305.252 157.893C305.369 157.955 305.47 158.014 305.552 158.061C305.713 158.156 305.802 158.219 305.802 158.219C305.802 158.219 305.69 158.217 305.504 158.2C305.411 158.192 305.298 158.183 305.169 158.167C305.045 158.148 304.899 158.141 304.743 158.129C304.588 158.119 304.423 158.092 304.247 158.083C304.071 158.074 303.887 158.064 303.698 158.047C303.508 158.041 303.314 158.041 303.115 158.03C302.919 158.032 302.72 158.034 302.519 158.037C302.419 158.041 302.319 158.048 302.221 158.053C302.121 158.059 302.022 158.058 301.925 158.072C301.827 158.082 301.73 158.091 301.634 158.099C301.536 158.103 301.445 158.124 301.351 158.134C301.163 158.154 300.984 158.186 300.812 158.212C300.725 158.224 300.644 158.247 300.563 158.26C300.482 158.276 300.403 158.288 300.329 158.308C300.179 158.34 300.04 158.371 299.918 158.403C299.793 158.431 299.687 158.464 299.596 158.487C299.511 158.515 299.436 158.531 299.391 158.548C299.34 158.563 299.315 158.571 299.315 158.571Z" fill="#161616"/>
<path d="M317.774 157.561C317.774 157.561 317.706 157.477 317.559 157.355C317.484 157.297 317.395 157.22 317.284 157.15C317.174 157.076 317.043 157.001 316.899 156.925C316.753 156.851 316.59 156.779 316.413 156.714C316.234 156.652 316.046 156.585 315.844 156.543C315.645 156.488 315.434 156.458 315.218 156.43C315.002 156.399 314.781 156.402 314.561 156.389C314.34 156.396 314.121 156.406 313.905 156.427C313.69 156.455 313.479 156.49 313.278 156.529C313.079 156.58 312.888 156.635 312.709 156.688C312.531 156.744 312.369 156.82 312.218 156.881C312.069 156.947 311.932 157.006 311.819 157.075C311.705 157.141 311.606 157.204 311.527 157.253C311.365 157.354 311.279 157.419 311.279 157.419C311.279 157.419 311.391 157.415 311.577 157.391C311.67 157.381 311.783 157.368 311.91 157.348C312.035 157.324 312.179 157.313 312.335 157.294C312.489 157.28 312.654 157.249 312.83 157.233C313.006 157.219 313.188 157.202 313.376 157.179C313.566 157.169 313.762 157.16 313.959 157.143C314.156 157.138 314.355 157.135 314.555 157.129C314.655 157.132 314.755 157.134 314.855 157.136C314.952 157.139 315.051 157.136 315.15 157.147C315.248 157.155 315.345 157.16 315.441 157.163C315.538 157.166 315.633 157.183 315.725 157.19C315.914 157.203 316.093 157.23 316.267 157.252C316.354 157.258 316.435 157.28 316.517 157.29C316.599 157.303 316.678 157.314 316.753 157.329C316.903 157.358 317.044 157.383 317.166 157.412C317.292 157.436 317.399 157.465 317.489 157.485C317.578 157.511 317.651 157.524 317.699 157.54C317.748 157.552 317.774 157.561 317.774 157.561Z" fill="#050607"/>
<path d="M313.353 160.54C313.117 161.409 313.634 162.289 314.503 162.506C315.372 162.724 316.267 162.197 316.5 161.327C316.736 160.459 316.221 159.578 315.351 159.36C314.481 159.144 313.587 159.671 313.353 160.54Z" fill="#050607"/>
<path d="M314.008 160.25C313.923 160.564 314.137 160.89 314.486 160.976C314.834 161.065 315.186 160.88 315.271 160.565C315.355 160.251 315.141 159.925 314.793 159.839C314.444 159.75 314.093 159.935 314.008 160.25Z" fill="white"/>
<path d="M304.111 160.162C304.345 161.03 303.83 161.911 302.96 162.129C302.09 162.346 301.196 161.819 300.962 160.95C300.728 160.081 301.243 159.2 302.113 158.983C302.982 158.766 303.877 159.294 304.111 160.162Z" fill="#050607"/>
<path d="M303.456 159.872C303.541 160.186 303.326 160.512 302.978 160.599C302.629 160.687 302.277 160.503 302.193 160.187C302.108 159.873 302.322 159.547 302.671 159.461C303.019 159.372 303.371 159.557 303.456 159.872Z" fill="white"/>
<path d="M319.183 153.099C319.183 153.099 324.636 169.788 319.647 174.778C319.647 174.778 326.894 170.806 327.553 152.593L319.183 153.099Z" fill="#161616"/>
<path d="M326.534 156.577C328.406 156.276 328.537 148.289 328.253 147.201C327.276 143.457 321.932 141.157 318.669 139.933C313.529 138.007 307.067 137.69 302.418 141.029C299.927 142.819 298.704 145.338 297.542 148.084C297.328 148.59 295.006 154.973 294.992 154.973C294.993 154.973 312.691 155.874 312.552 155.867L314.225 155.952C314.225 155.952 325.217 156.788 326.534 156.577" fill="#161616"/>
<path d="M340.44 206.23H340.325C338.973 206.237 337.656 206.712 336.489 207.409C337.729 209.033 339.121 210.53 340.912 211.57C341.031 211.639 341.145 211.699 341.255 211.754C341.486 211.488 341.702 211.21 341.893 210.913C343.136 208.989 343.313 206.275 340.44 206.23Z" fill="#E8B79E"/>
<path d="M301.216 255.505C301.216 255.505 302.103 282.741 302.162 285.277C302.22 287.813 305.746 310.512 306.173 316.074C306.6 321.636 305.073 333.064 303.835 337.62L302.333 341.485C302.333 341.485 307.152 343.413 309.026 342.574C311.972 341.252 312.564 336.569 313.306 333.814C314.093 330.892 314.676 327.866 314.551 324.827C314.43 321.905 312.825 319.687 312.213 316.901C310.547 309.314 313.384 301.464 313.789 293.874C314.151 287.101 313.24 280.345 312.227 273.664C311.281 267.434 314.165 261.916 313.867 255.753C313.867 255.753 302.375 247.567 301.086 254.215" fill="#EFC8B1"/>
<path d="M303.304 338.984C303.23 339.319 304.214 339.675 304.436 339.775C306.06 340.511 308.634 341.221 309.971 339.573C311.604 337.567 311.978 334.087 312.671 331.664C313.453 328.923 314.267 325.77 314.025 322.89L313.911 321.533C313.911 321.533 317.729 323.866 317.489 327.105C317.248 330.345 313.991 335.776 313.788 339.164C313.662 341.252 312.647 343.328 310.941 344.568C308.335 346.463 303.833 346.328 301.047 344.899C300.016 344.37 299.204 341.914 300.554 341.293C302.237 340.52 304.959 332.61 304.675 332.343L303.835 337.619C303.835 337.619 303.304 338.981 303.304 338.984Z" fill="#122738"/>
<path d="M317.308 327.906C317.308 327.906 316.226 334.879 316.747 338.78L315.612 339.155L314.479 333.923L317.308 327.906Z" fill="#312E2F"/>
<path d="M327.06 327.906C327.06 327.906 326.146 338.344 326.668 342.247L325.008 342.293L324.231 333.923L327.06 327.906Z" fill="#0C1B26"/>
<path d="M309.853 255.505C309.853 255.505 311.854 282.741 311.913 285.277C311.972 287.813 315.497 310.512 315.925 316.074C316.352 321.636 314.825 333.064 313.587 337.62L312.084 341.485C312.084 341.485 316.905 343.413 318.777 342.574C321.724 341.252 322.316 336.569 323.058 333.814C323.844 330.892 324.427 327.866 324.303 324.827C324.183 321.905 322.576 319.687 321.964 316.901C320.298 309.314 323.136 301.464 323.541 293.874C323.902 287.101 322.992 280.345 321.979 273.664C321.033 267.434 323.917 261.916 323.619 255.753C323.619 255.753 311.013 247.567 309.723 254.215" fill="#F8D0B7"/>
<path d="M313.056 338.984C312.981 339.319 313.965 339.675 314.188 339.775C315.811 340.511 318.386 341.221 319.723 339.573C321.356 337.567 321.73 334.087 322.421 331.664C323.205 328.923 324.019 325.77 323.777 322.89L323.662 321.533C323.662 321.533 327.481 323.866 327.241 327.105C327 330.345 323.743 335.776 323.539 339.164C323.414 341.252 322.399 343.328 320.693 344.568C318.087 346.463 313.585 346.328 310.798 344.899C309.768 344.37 308.955 341.914 310.305 341.293C311.988 340.52 314.711 332.61 314.427 332.343L313.587 337.619C313.587 337.619 313.056 338.981 313.056 338.984Z" fill="#122738"/>
<path d="M322.594 196.985C323.542 192.508 326.857 187.93 327.059 186.925C321.833 181.704 317.17 179.85 316.072 179.508L309.574 179.537C307.836 180.244 306.084 180.915 304.34 181.608C303.684 181.867 303.072 182.004 302.658 182.574C302.152 183.273 301.894 184.469 301.561 185.279C300.648 187.492 299.709 189.739 299.259 192.11C298.968 193.642 299.33 195.291 299.95 196.985H322.594Z" fill="#F8D0B7"/>
<path d="M329.102 231.191C327.039 225.288 324.255 219.588 323.215 213.379C319.598 214.912 305.846 214.444 303.166 212.073C302.579 219.787 298.622 227.162 296.744 234.673C295.569 239.367 294.589 244.14 294.413 248.988C294.23 254.06 296.058 269.453 296.429 275.119C311.324 284.756 328.25 275.513 328.925 273.765C332.464 264.602 332.292 250.895 331.416 241.024C331.114 237.613 330.213 234.373 329.102 231.191Z" fill="#122738"/>
<path d="M296.743 234.673C296.665 234.983 296.591 235.296 296.516 235.607C301.809 238.44 322.438 240.144 330.23 234.761C329.896 233.56 329.514 232.371 329.101 231.191C327.119 225.521 324.477 220.035 323.35 214.109L320.195 214.037C316.936 214.414 312.24 214.321 308.533 213.773L304.203 213.674C304.203 213.674 302.643 225.495 297.62 231.594C297.299 232.619 297 233.645 296.743 234.673Z" fill="#0B1C28"/>
<path d="M309.097 190.792C309.084 190.569 309.057 190.353 309.028 190.135C309.022 190.099 309.017 190.064 309.011 190.027C308.63 187.475 307.17 185.34 305.294 183.917C302.937 182.212 300.428 180.744 297.958 179.217C292.998 176.207 288.745 173.784 283.727 170.869C282.172 167.998 280.593 165.146 278.949 162.339C278.118 160.936 277.288 159.534 276.355 158.203C275.304 156.977 274.537 155.557 273.787 154.095C272.272 151.201 270.967 148.114 268.883 145.616C267.744 144.306 266.505 143.113 265.208 141.989C265.325 142.192 269.25 149.038 268.848 155.898C268.848 155.898 268.84 155.9 268.835 155.902C269.305 156.179 269.773 156.471 270.244 156.747L270.753 157.055L271.007 157.209C271.101 157.258 271.182 157.316 271.179 157.368C271.311 157.642 271.442 158.106 271.558 158.491C272.025 160.115 272.508 161.744 273.079 163.328C274.216 166.489 275.64 169.535 277.614 172.137C278.601 173.428 279.709 174.639 280.974 175.626C282.216 176.631 283.478 177.611 284.748 178.578C287.292 180.509 289.138 181.852 291.8 183.615C294.464 185.374 297.184 187.053 300.023 188.533C302.89 189.957 305.822 191.298 309.113 191.798C309.115 191.741 309.108 191.686 309.11 191.628C309.119 191.469 309.125 191.18 309.097 190.792Z" fill="#EFC8B1"/>
<path d="M267.003 145.639C266.914 146.627 266.364 149.149 265.991 150.046C265.282 149.94 264.587 149.647 263.971 149.276C263.288 148.888 262.762 148.313 262.103 147.806C261.771 147.565 261.413 147.353 261.006 147.213C260.598 147.105 260.135 146.972 259.595 147.317C259.532 147.366 259.444 147.439 259.403 147.579C259.351 147.726 259.392 147.77 259.392 147.867C259.427 147.998 259.477 148.107 259.53 148.204C259.639 148.396 259.759 148.569 259.887 148.731C260.14 149.059 260.413 149.36 260.691 149.654C261.781 150.841 263.01 151.887 264.138 153.003L264.971 153.873C265.272 154.171 265.623 154.399 265.987 154.59C266.715 154.973 267.496 155.207 268.203 155.542C268.456 155.671 268.703 155.821 268.952 155.97V148.409C267.988 148.123 267.853 146.129 267.003 145.639Z" fill="#EFC8B1"/>
<path d="M291.825 175.568C291.825 175.568 293.145 177.711 292.727 182.011C292.309 186.312 290.516 185.476 290.516 185.476C290.516 185.476 294.996 188.88 299.476 191.27C303.956 193.66 303.777 182.25 303.777 182.25C303.777 182.25 292.297 174.143 291.825 175.568Z" fill="white"/>
<path d="M303.078 213.368C303.061 213.674 302.926 214.06 303.142 214.209C310.024 218.942 323.37 214.004 323.274 213.418C322.812 210.595 322.736 207.679 323.279 204.86C324.5 198.513 329.184 192.362 327.134 185.683C327.126 185.66 327.119 185.636 327.111 185.612C326.421 183.555 319.623 181.169 319.031 180.786C319.231 181.308 318.682 181.911 318.494 182.147C317.567 183.299 316.109 184.019 314.718 184.428C313.102 184.903 311.407 185.095 309.726 185.03C308.783 184.993 307.836 184.872 306.911 184.683C306.343 184.568 305.643 184.387 305.264 183.92C304.568 183.063 305.226 181.816 305.656 180.986C305.656 180.986 304.833 181.294 303.778 181.315C302.468 181.339 298.462 178.682 298.462 178.682C297.724 180.953 298.853 189.991 297.975 192.191C297.422 193.576 297.133 195.101 297.403 196.568C297.84 198.938 299.614 200.741 300.374 202.987C301.339 205.838 303.242 210.263 303.078 213.368Z" fill="white"/>
<path d="M302.822 210.648C302.822 210.648 300.892 225.3 294.401 230.397C289.541 234.212 319.971 238.547 329.236 231.457C329.63 231.154 329.688 230.579 329.366 230.2C328.855 229.599 328.068 228.352 327.059 225.766C325.182 220.958 322.99 211.105 322.99 211.105L302.822 210.648Z" fill="white"/>
<path d="M343.639 211.615C343.146 212.234 342.291 212.371 340.913 211.57C339.05 210.487 337.615 208.914 336.338 207.214C334.71 205.047 332.772 203.124 330.919 201.138C328.416 198.457 325.791 195.823 323.494 192.961C321.618 190.625 320.123 188.85 320.999 185.589C321.132 185.092 321.325 184.597 321.666 184.207C322.182 183.614 323.002 183.461 323.75 183.55C325.614 183.774 326.861 185.086 328.031 186.392C329.249 187.752 330.603 189.004 331.879 190.312C334.605 193.106 337.269 195.984 339.517 199.18C340.982 201.265 342.543 203.327 343.559 205.683C344.591 208.078 344.647 210.353 343.639 211.615Z" fill="#EFC8B1"/>
<path d="M340.44 206.23H340.325C338.973 206.237 337.656 206.712 336.489 207.409C337.729 209.033 339.121 210.53 340.912 211.57C341.031 211.639 341.145 211.699 341.255 211.754C341.486 211.488 341.702 211.21 341.893 210.913C343.136 208.989 343.313 206.275 340.44 206.23Z" fill="#E8B79E"/>
<path d="M341.724 206.835C341.686 206.84 341.647 206.846 341.609 206.851C340.104 207.079 338.73 207.886 337.596 208.906C335.184 211.073 333.2 213.92 331.041 216.349C329.36 218.24 327.677 220.336 325.819 222.171C325.935 222.295 326.034 222.434 326.107 222.596C326.833 224.203 327.104 225.201 328.104 226.655C329.915 223.403 337.492 218.694 341.706 214.2C342.538 213.311 343.336 212.365 343.841 211.257C344.792 209.174 344.573 206.462 341.724 206.835Z" fill="#EFC8B1"/>
<path d="M325.712 224.796C325.709 224.801 323.662 227.166 323.267 227.126C322.872 227.087 322.352 226.58 322.352 226.58L325.037 223.084C325.037 223.084 322.205 225.767 321.517 225.812C320.828 225.858 320.314 225.294 320.314 225.294L323.941 221.493C323.941 221.493 321.55 224.334 320.726 224.593C319.902 224.854 319.269 224.334 319.269 224.334L322.773 220.066L322.648 220.738C322.648 220.738 320.922 222.048 320.25 221.924C319.579 221.8 319.048 221.405 319.048 221.405C319.048 221.405 320.887 220.106 321.836 219.174C322.783 218.243 323.737 218.395 323.737 218.395C325.434 219.798 326.487 221.939 327.57 223.845C328.407 225.318 328.429 228.141 328.429 228.141C328.429 228.141 327.903 229.093 325.712 224.796Z" fill="#F8D0B7"/>
<path d="M299.996 152.931C299.996 152.931 296.986 158.724 297.155 167.09C297.155 167.09 291.521 159.719 298.873 149.188L299.996 152.931Z" fill="#161616"/>
<path d="M329.547 201.405C329.547 201.405 336.25 200.45 337.607 195.431C337.607 195.431 327.903 184.29 323.715 182.911C319.527 181.533 317.695 186.352 319.687 189.737C321.677 193.122 329.547 201.405 329.547 201.405Z" fill="white"/>
<path d="M298.06 191.932C298.06 191.932 298.35 190.476 299.514 188.864C300.679 187.251 298.343 188.246 296.083 189.293C296.083 189.293 298.075 190.404 298.072 191.121C298.071 191.524 298.06 191.932 298.06 191.932Z" fill="#E1E4E5"/>
<path d="M308.516 170.568C308.755 170.568 308.961 170.405 309.021 170.174C309.26 169.25 310.091 168.568 311.09 168.568C312.088 168.568 312.92 169.25 313.158 170.174C313.218 170.405 313.424 170.568 313.664 170.568C313.999 170.568 314.263 170.254 314.181 169.928C313.832 168.542 312.585 167.514 311.09 167.514C309.594 167.514 308.347 168.542 307.998 169.928C307.916 170.254 308.18 170.568 308.516 170.568Z" fill="#F05B4E"/>
<defs>
<filter id="filter0_d_2_773" x="178.348" y="111.659" width="39.9677" height="39.9674" filterUnits="userSpaceOnUse" color-interpolation-filters="sRGB">
<feFlood flood-opacity="0" result="BackgroundImageFix"/>
<feColorMatrix in="SourceAlpha" type="matrix" values="0 0 0 0 0 0 0 0 0 0 0 0 0 0 0 0 0 0 127 0" result="hardAlpha"/>
<feMorphology radius="6.96683" operator="erode" in="SourceAlpha" result="effect1_dropShadow_2_773"/>
<feOffset dy="10.4502"/>
<feGaussianBlur stdDeviation="11.6114"/>
<feColorMatrix type="matrix" values="0 0 0 0 0.243137 0 0 0 0 0.741176 0 0 0 0 1 0 0 0 0.45 0"/>
<feBlend mode="normal" in2="BackgroundImageFix" result="effect1_dropShadow_2_773"/>
<feBlend mode="normal" in="SourceGraphic" in2="effect1_dropShadow_2_773" result="shape"/>
</filter>
<filter id="filter1_d_2_773" x="380.151" y="207.59" width="39.9677" height="39.9674" filterUnits="userSpaceOnUse" color-interpolation-filters="sRGB">
<feFlood flood-opacity="0" result="BackgroundImageFix"/>
<feColorMatrix in="SourceAlpha" type="matrix" values="0 0 0 0 0 0 0 0 0 0 0 0 0 0 0 0 0 0 127 0" result="hardAlpha"/>
<feMorphology radius="6.96683" operator="erode" in="SourceAlpha" result="effect1_dropShadow_2_773"/>
<feOffset dy="10.4502"/>
<feGaussianBlur stdDeviation="11.6114"/>
<feColorMatrix type="matrix" values="0 0 0 0 0.243137 0 0 0 0 0.741176 0 0 0 0 1 0 0 0 0.45 0"/>
<feBlend mode="normal" in2="BackgroundImageFix" result="effect1_dropShadow_2_773"/>
<feBlend mode="normal" in="SourceGraphic" in2="effect1_dropShadow_2_773" result="shape"/>
</filter>
<filter id="filter2_d_2_773" x="300.622" y="283.142" width="39.9677" height="39.9674" filterUnits="userSpaceOnUse" color-interpolation-filters="sRGB">
<feFlood flood-opacity="0" result="BackgroundImageFix"/>
<feColorMatrix in="SourceAlpha" type="matrix" values="0 0 0 0 0 0 0 0 0 0 0 0 0 0 0 0 0 0 127 0" result="hardAlpha"/>
<feMorphology radius="6.96683" operator="erode" in="SourceAlpha" result="effect1_dropShadow_2_773"/>
<feOffset dy="10.4502"/>
<feGaussianBlur stdDeviation="11.6114"/>
<feColorMatrix type="matrix" values="0 0 0 0 0.243137 0 0 0 0 0.741176 0 0 0 0 1 0 0 0 0.45 0"/>
<feBlend mode="normal" in2="BackgroundImageFix" result="effect1_dropShadow_2_773"/>
<feBlend mode="normal" in="SourceGraphic" in2="effect1_dropShadow_2_773" result="shape"/>
</filter>
<filter id="filter3_d_2_773" x="158.963" y="277.177" width="47.9206" height="47.9206" filterUnits="userSpaceOnUse" color-interpolation-filters="sRGB">
<feFlood flood-opacity="0" result="BackgroundImageFix"/>
<feColorMatrix in="SourceAlpha" type="matrix" values="0 0 0 0 0 0 0 0 0 0 0 0 0 0 0 0 0 0 127 0" result="hardAlpha"/>
<feMorphology radius="6.96683" operator="erode" in="SourceAlpha" result="effect1_dropShadow_2_773"/>
<feOffset dy="10.4502"/>
<feGaussianBlur stdDeviation="11.6114"/>
<feColorMatrix type="matrix" values="0 0 0 0 0.243137 0 0 0 0 0.741176 0 0 0 0 1 0 0 0 0.45 0"/>
<feBlend mode="normal" in2="BackgroundImageFix" result="effect1_dropShadow_2_773"/>
<feBlend mode="normal" in="SourceGraphic" in2="effect1_dropShadow_2_773" result="shape"/>
</filter>
<filter id="filter4_d_2_773" x="296.149" y="254.313" width="41.4589" height="41.4586" filterUnits="userSpaceOnUse" color-interpolation-filters="sRGB">
<feFlood flood-opacity="0" result="BackgroundImageFix"/>
<feColorMatrix in="SourceAlpha" type="matrix" values="0 0 0 0 0 0 0 0 0 0 0 0 0 0 0 0 0 0 127 0" result="hardAlpha"/>
<feMorphology radius="6.96683" operator="erode" in="SourceAlpha" result="effect1_dropShadow_2_773"/>
<feOffset dy="10.4502"/>
<feGaussianBlur stdDeviation="11.6114"/>
<feColorMatrix type="matrix" values="0 0 0 0 0.243137 0 0 0 0 0.741176 0 0 0 0 1 0 0 0 0.45 0"/>
<feBlend mode="normal" in2="BackgroundImageFix" result="effect1_dropShadow_2_773"/>
<feBlend mode="normal" in="SourceGraphic" in2="effect1_dropShadow_2_773" result="shape"/>
</filter>
<filter id="filter5_d_2_773" x="56.5705" y="253.815" width="41.4589" height="41.4586" filterUnits="userSpaceOnUse" color-interpolation-filters="sRGB">
<feFlood flood-opacity="0" result="BackgroundImageFix"/>
<feColorMatrix in="SourceAlpha" type="matrix" values="0 0 0 0 0 0 0 0 0 0 0 0 0 0 0 0 0 0 127 0" result="hardAlpha"/>
<feMorphology radius="6.96683" operator="erode" in="SourceAlpha" result="effect1_dropShadow_2_773"/>
<feOffset dy="10.4502"/>
<feGaussianBlur stdDeviation="11.6114"/>
<feColorMatrix type="matrix" values="0 0 0 0 0.243137 0 0 0 0 0.741176 0 0 0 0 1 0 0 0 0.45 0"/>
<feBlend mode="normal" in2="BackgroundImageFix" result="effect1_dropShadow_2_773"/>
<feBlend mode="normal" in="SourceGraphic" in2="effect1_dropShadow_2_773" result="shape"/>
</filter>
<filter id="filter6_d_2_773" x="248.929" y="294.574" width="36.9853" height="36.9855" filterUnits="userSpaceOnUse" color-interpolation-filters="sRGB">
<feFlood flood-opacity="0" result="BackgroundImageFix"/>
<feColorMatrix in="SourceAlpha" type="matrix" values="0 0 0 0 0 0 0 0 0 0 0 0 0 0 0 0 0 0 127 0" result="hardAlpha"/>
<feMorphology radius="6.96683" operator="erode" in="SourceAlpha" result="effect1_dropShadow_2_773"/>
<feOffset dy="10.4502"/>
<feGaussianBlur stdDeviation="11.6114"/>
<feColorMatrix type="matrix" values="0 0 0 0 0.243137 0 0 0 0 0.741176 0 0 0 0 1 0 0 0 0.45 0"/>
<feBlend mode="normal" in2="BackgroundImageFix" result="effect1_dropShadow_2_773"/>
<feBlend mode="normal" in="SourceGraphic" in2="effect1_dropShadow_2_773" result="shape"/>
</filter>
<linearGradient id="paint0_linear_2_773" x1="194.604" y1="117.465" x2="202.686" y2="118.221" gradientUnits="userSpaceOnUse">
<stop stop-color="#FF6631"/>
<stop offset="1" stop-color="#FC2222"/>
</linearGradient>
<linearGradient id="paint1_linear_2_773" x1="396.406" y1="213.396" x2="404.489" y2="214.151" gradientUnits="userSpaceOnUse">
<stop stop-color="#FF6631"/>
<stop offset="1" stop-color="#FC2222"/>
</linearGradient>
<linearGradient id="paint2_linear_2_773" x1="316.878" y1="288.948" x2="324.961" y2="289.704" gradientUnits="userSpaceOnUse">
<stop stop-color="#FF6631"/>
<stop offset="1" stop-color="#FC2222"/>
</linearGradient>
<linearGradient id="paint3_linear_2_773" x1="175.219" y1="282.982" x2="191.922" y2="284.545" gradientUnits="userSpaceOnUse">
<stop stop-color="#FF6631"/>
<stop offset="1" stop-color="#FC2222"/>
</linearGradient>
<linearGradient id="paint4_linear_2_773" x1="312.405" y1="260.119" x2="322.104" y2="261.026" gradientUnits="userSpaceOnUse">
<stop stop-color="#FF6631"/>
<stop offset="1" stop-color="#FC2222"/>
</linearGradient>
<linearGradient id="paint5_linear_2_773" x1="72.8264" y1="259.621" x2="82.5253" y2="260.528" gradientUnits="userSpaceOnUse">
<stop stop-color="#FF6631"/>
<stop offset="1" stop-color="#FC2222"/>
</linearGradient>
<linearGradient id="paint6_linear_2_773" x1="265.185" y1="300.38" x2="270.034" y2="300.833" gradientUnits="userSpaceOnUse">
<stop stop-color="#FDC68A"/>
<stop offset="1" stop-color="#FCC822"/>
</linearGradient>
<linearGradient id="paint7_linear_2_773" x1="274.132" y1="183.076" x2="274.132" y2="189.04" gradientUnits="userSpaceOnUse">
<stop stop-color="#FF6631"/>
<stop offset="1" stop-color="#FC2222"/>
</linearGradient>
<linearGradient id="paint8_linear_2_773" x1="289.043" y1="201.806" x2="289.043" y2="207.771" gradientUnits="userSpaceOnUse">
<stop stop-color="#FF6631"/>
<stop offset="1" stop-color="#FC2222"/>
</linearGradient>
<linearGradient id="paint9_linear_2_773" x1="298.487" y1="203.298" x2="298.487" y2="206.28" gradientUnits="userSpaceOnUse">
<stop stop-color="#FF6631"/>
<stop offset="1" stop-color="#FC2222"/>
</linearGradient>
<linearGradient id="paint10_linear_2_773" x1="295.721" y1="209.975" x2="295.721" y2="212.957" gradientUnits="userSpaceOnUse">
<stop stop-color="#FF6631"/>
<stop offset="1" stop-color="#FC2222"/>
</linearGradient>
<linearGradient id="paint11_linear_2_773" x1="288.883" y1="212.741" x2="288.883" y2="215.724" gradientUnits="userSpaceOnUse">
<stop stop-color="#FF6631"/>
<stop offset="1" stop-color="#FC2222"/>
</linearGradient>
<linearGradient id="paint12_linear_2_773" x1="282.205" y1="209.976" x2="282.205" y2="212.958" gradientUnits="userSpaceOnUse">
<stop stop-color="#FF6631"/>
<stop offset="1" stop-color="#FC2222"/>
</linearGradient>
<linearGradient id="paint13_linear_2_773" x1="279.599" y1="203.298" x2="279.599" y2="206.28" gradientUnits="userSpaceOnUse">
<stop stop-color="#FF6631"/>
<stop offset="1" stop-color="#FC2222"/>
</linearGradient>
<linearGradient id="paint14_linear_2_773" x1="282.365" y1="196.62" x2="282.365" y2="199.602" gradientUnits="userSpaceOnUse">
<stop stop-color="#FF6631"/>
<stop offset="1" stop-color="#FC2222"/>
</linearGradient>
<linearGradient id="paint15_linear_2_773" x1="288.883" y1="193.854" x2="288.883" y2="196.836" gradientUnits="userSpaceOnUse">
<stop stop-color="#FF6631"/>
<stop offset="1" stop-color="#FC2222"/>
</linearGradient>
<linearGradient id="paint16_linear_2_773" x1="295.561" y1="196.619" x2="295.561" y2="199.602" gradientUnits="userSpaceOnUse">
<stop stop-color="#FF6631"/>
<stop offset="1" stop-color="#FC2222"/>
</linearGradient>
</defs>
</svg>
