<svg xmlns="http://www.w3.org/2000/svg" viewBox="0 0 1558.87 456.82"><defs><style>.cls-1{fill:#ff6631;}</style></defs><title>quizelo</title><g id="Layer_2" data-name="Layer 2"><g id="Layer_1-2" data-name="Layer 1"><path d="M388.15,388l-15.89-21.65c-4.22-5.75-11.78-7.31-17.53-3.09l-64.94,47.66a12.83,12.83,0,0,0-2.76,18l15.89,21.65c5.3,7.22,12.9,7.88,18.65,3.66l8.12-6c10.5,4.61,22.56,3.56,33-4.13a33.44,33.44,0,0,0,13.85-30.29l9.92-7.28C392.25,402.33,392.37,393.74,388.15,388Z"/><path d="M218.87,71.23A166.75,166.75,0,1,0,385.61,238,166.75,166.75,0,0,0,218.87,71.23Zm.7,283.07a120.5,120.5,0,1,1,120.5-120.5A120.5,120.5,0,0,1,219.56,354.29Z"/><rect x="97.67" y="28.1" width="25.39" height="51.47" transform="translate(-11.26 70.77) rotate(-33.93)"/><rect x="221.13" y="2.72" width="25.39" height="51.47" transform="translate(21.68 -73.9) rotate(18.82)"/><rect x="15.95" y="126.52" width="25.39" height="51.47" transform="translate(-122.72 119.23) rotate(-67.04)"/><path d="M655.23,349.79H600.52V322.63c-13.58,18.24-37.25,29.88-64,29.88-50.05,0-86.14-32.59-86.14-91.57V134.84h54.32V253.18c0,34.53,19,53.16,47.72,53.16,29.49,0,48.11-18.62,48.11-53.16V134.84h54.71Z"/><path d="M702.95,77.42c0-17.85,14-31.82,33.37-31.82,19,0,33.37,14,33.37,31.82s-14.36,31.82-33.37,31.82C716.92,109.23,702.95,95.26,702.95,77.42Zm5.82,57.42h54.32v215H708.77Z"/><path d="M961,178.68,866.3,305.17h95.84v44.62H804.6V305.95l93.9-126.49H805V134.84H961Z"/><path d="M1097.93,353.29c-62.47,0-107.86-43.46-107.86-111,0-67.9,44.23-111,107.86-111,62.08,0,105.92,42.29,105.92,106.31a127,127,0,0,1-1.55,21H1045.16c2.72,31.82,24.44,49.66,51.6,49.66,23.28,0,36.08-11.64,43.07-26h58.59C1186.78,321.86,1151.08,353.29,1097.93,353.29Zm-52.38-131.14h102c-.78-28.32-23.28-46.17-51.22-46.17C1070.38,176,1049.81,192.65,1045.55,222.14Z"/><path d="M1243.42,62.67h54.32V349.79h-54.32Z"/><path d="M1446.73,353.29c-62.08,0-109-43.46-109-111,0-67.9,48.5-111,110.58-111s110.58,43.07,110.58,111C1558.87,309.83,1509.2,353.29,1446.73,353.29Zm0-47.34c28.71,0,56.26-21,56.26-63.63,0-43.07-26.77-63.63-55.48-63.63s-54.71,20.56-54.71,63.63C1392.8,285,1417.63,305.95,1446.73,305.95Z"/><circle class="cls-1" cx="232.88" cy="279.82" r="81"/></g></g></svg>